<svg height="511pt" viewBox="0 0 511.82931 511" width="511pt" xmlns="http://www.w3.org/2000/svg" xmlns:xlink="http://www.w3.org/1999/xlink"><linearGradient id="linear0" gradientUnits="userSpaceOnUse" x1="255.990106116" x2="255.990106116" y1=".425953092" y2="510.829566688"><stop offset="0" stop-color="#f5085d"/><stop offset=".017" stop-color="#f6115f"/><stop offset=".0867" stop-color="#f93368"/><stop offset=".1583" stop-color="#fc4d6f"/><stop offset=".2317" stop-color="#fe5f73"/><stop offset=".3078" stop-color="#ff6a76"/><stop offset=".3911" stop-color="#ff6e77"/><stop offset=".6374" stop-color="#b53b92"/><stop offset=".8253" stop-color="#8218a4"/><stop offset=".9175" stop-color="#6f0bab"/></linearGradient><path d="m449.523438 102.777344-1.152344-.535156c-21.089844-9.566407-44.214844-12.226563-66.722656-7.617188l-17.191407 3.542969c-46.875 9.480469-90.207031 34.46875-122.195312 70.269531-10.015625 11.253906-21.886719 20.113281-35.535157 26.230469l-47.851562 21.796875c-8.769531 3.898437-18.960938 3.367187-27.113281-1.507813-8.773438-5.316406-14.179688-14.886719-14.179688-24.988281 0-2.214844.265625-4.429688.796875-6.554688l14.886719-64.246093c1.152344-5.050781 5.230469-9.214844 10.371094-10.457031l26.316406-6.644532c17.367187-4.339844 33.140625-14.355468 44.21875-28.355468 11.605469-14.621094 17.988281-32.875 17.988281-51.394532v-13.914062c0-3.1875-1.949218-6.113282-4.964844-7.351563-3.011718-1.242187-6.378906-.535156-8.683593 1.769531l-22.59375 22.507813c-4.433594 4.429687-10.636719 7-16.925781 7h-26.585938c-13.023438 0-24.632812 6.292969-31.898438 15.949219-1.152343-1.503906-2.394531-3.011719-3.722656-4.339844-7.621094-7.53125-17.632812-11.609375-28.179687-11.609375h-34.644531c-6.292969 0-12.496094-2.570313-16.925782-7l-22.597656-22.59375c-2.214844-2.21875-5.582031-2.925781-8.503906-1.773437-2.925782 1.152343-4.875 3.898437-5.050782 7l-.8007808 15.59375c-.7070312 15.597656 3.1015628 30.839843 10.8124998 43.597656.089844.179687.53125.976562.621094 1.152344 11.074219 18.34375 29.328125 31.371093 49.621094 35.710937.265625.089844.621093.179687.886719.265625 4.785156 1.0625 8.417968 4.164062 10.191406 8.683594 1.769531 4.519531 1.0625 9.394531-1.863282 13.382812l-50.683593 69.203125c-12.140625 16.570313-18.785157 36.863281-18.785157 57.332031v1.152344c0 38.546875 21.355469 73.105469 55.648438 90.296875l32.519531 16.214844c9.925781 4.964844 18.164063 9.039063 23.039063 11.519531-.621094 12.851563-3.011719 25.519532-7.179688 37.925782-4.960937 14.800781-12.136718 28.710937-21.53125 41.207031-6.378906 8.503906-9.746094 18.605469-9.746094 29.0625 0 9.570312 2.835938 18.875 8.152344 26.9375 1.238282 1.949219 3.367188 3.191406 5.582032 3.457031.355468.089844.707031.089844 1.0625.089844 1.949218 0 3.808593-.710938 5.316406-2.039063l41.203125-36.597656c21.003906-18.785156 36.863281-42.796875 45.726562-69.382813l7.355469-21.976562c8.328125.621094 16.746094.976562 25.074219.976562 11.699219 0 23.304687-.53125 34.824219-1.773437l39.964843-3.988281v12.140625c-9.480469 11.964843-8.773437 29.507812 2.304688 40.585937l2.480469 2.480469c4.695312 4.695313 10.722656 7.886719 17.28125 9.214844 44.746093 8.949219 85.773437 32.964843 115.460937 67.613281 1.503906 1.769531 3.722656 2.746094 6.023437 2.746094.621094 0 1.242188-.089844 1.863282-.179688 2.921875-.707031 5.226562-2.921875 5.9375-5.847656 5.582031-22.328125 1.769531-46.433594-10.457032-65.925781-15.507812-24.8125-37.925781-44.308594-64.6875-56.179688l-21.089843-9.394531 64.242187-8.59375c7.886719-1.0625 15.597656-3.015625 23.128906-5.582031 1.773438-.621094 3.011719-1.152344 7.179688-2.660157 3.453125-1.417968 6.820312-3.011718 10.101562-4.875 3.71875-2.035156 6.734376-3.898437 9.835938-6.113281l12.136719-9.390625 10.988281-11.167968c1.773438-2.035157 3.367188-4.074219 4.875-6.289063.441406-.710937.886719-1.332031 1.328125-2.039063 1.066406-1.507812 2.039063-3.011718 2.925781-4.609374.53125-.796876.972656-1.683594 1.417969-2.566407.796875-1.417969 1.59375-2.925781 2.304687-4.433593.441407-.886719.882813-1.859376 1.328126-2.835938.621093-1.503906 1.242187-2.921875 1.859374-4.429688.355469-.972656.710938-1.949218 1.066407-2.921874.53125-1.507813 1.0625-3.101563 1.503906-4.609376.265625-.976562.621094-1.949218.796875-2.925781.445312-1.683593.796875-3.367187 1.152344-5.050781.179687-.886719.355468-1.769531.53125-2.65625.355468-2.128906.621094-4.164062.886718-6.292969.089844-.53125.179688-.972656.179688-1.503906 0-.089844 0-.179687 0-.269531h.351562c4.34375 0 7.886719-3.542969 7.976563-7.882813l.707031-62.5625c.621094-42.179687-24.011718-80.726562-62.292968-98.179687zm-385.816407 227.199218c-28.886719-14.445312-46.875-43.597656-46.875-76.027343v-1.152344c0-17.015625 5.582031-34.027344 15.683594-47.851563l50.6875-69.207031c6.113281-8.238281 7.53125-18.875 3.898437-28.445312-3.632812-9.566407-11.785156-16.480469-21.269531-18.519531-.265625-.085938-.617187-.175782-.972656-.265626-16.480469-3.453124-30.925781-13.820312-39.433594-27.910156-.085937-.179687-.53125-.976562-.621093-1.152344-5.847657-9.925781-8.949219-21.179687-8.859376-32.699218l9.835938 9.835937c4.253906 4.253907 9.394531 7.265625 14.976562 9.214844v10.367187c0 4.433594 3.542969 7.976563 7.972657 7.976563 4.433593 0 7.976562-3.542969 7.976562-7.976563v-7.972656h15.949219v7.972656c0 4.433594 3.546875 7.976563 7.976562 7.976563 4.429688 0 7.972657-3.542969 7.972657-7.976563v-7.972656c6.382812 0 12.40625 2.480469 16.925781 6.910156 4.519531 4.609376 7 10.632813 7 17.015626 0 4.429687 3.546875 7.972656 7.976562 7.972656 4.429688 0 7.976563-3.542969 7.976563-7.972656 0-13.203126 10.71875-23.925782 23.921875-23.925782v7.972656c0 4.433594 3.546875 7.976563 7.976562 7.976563 4.429688 0 7.976563-3.542969 7.976563-7.976563v-7.972656h10.632813c1.769531 0 3.542968-.265625 5.226562-.53125v8.503906c0 4.433594 3.546875 7.976563 7.976562 7.976563 4.429688 0 7.972657-3.542969 7.972657-7.976563v-14.175781c2.484375-1.59375 4.875-3.367187 7-5.496093l8.6875-8.683594c-1.152344 13.027344-6.117188 25.523437-14.269531 35.710937-9.035157 11.253907-21.621094 19.40625-35.710938 22.863281l-26.316406 6.644532c-10.898438 2.746094-19.582032 11.519531-22.0625 22.417968l-14.710938 64.246094c-.796875 3.367188-1.152344 6.734375-1.152344 10.191406 0 15.683594 8.417969 30.480469 21.886719 38.632813 12.671875 7.621094 28.355469 8.507813 41.914063 2.394531l47.851562-21.800781c15.683594-7.089844 29.417969-17.277344 40.847656-30.214844 29.597657-33.230469 69.917969-56.359375 113.425782-65.21875l17.277344-3.546875c19.140624-3.898437 38.902343-1.59375 56.890624 6.46875l1.152344.53125c32.695313 14.890625 53.609375 47.675782 53.253906 83.652344l-.621093 52.28125c-16.480469-12.851562-38.632813-16.304688-58.394531-8.332031l-33.050782 13.292969c-8.863281 3.542968-18.875 4.519531-27.558594 2.925781-1.949218-.355469-3.898437-.53125-5.761718-.53125-18.074219 0-33.050782 13.820312-34.734375 31.542969l-4.074219 4.078124c-15.773438 15.773438-35.535156 26.9375-57.15625 32.34375l-59.902344 15.0625-14.265625 2.394532 15.949219-19.140625c3.632812-4.34375 5.496094-9.660157 5.496094-15.152344 0-13.203125-10.722656-24.015625-23.925782-24.015625-5.761718 0-11.519531 2.394531-15.597656 6.46875l-9.480468 9.480469h-11.695313c-13.027344 0-25.257813 5.050781-34.472656 14.269531-9.304688 9.214844-14.355469 21.53125-14.355469 34.558594v2.035156c-4.519531-2.214844-10.101562-5.050781-16.304688-8.152344zm60.789063 130.347657-33.320313 29.597656c-.972656-3.101563-1.503906-6.378906-1.503906-9.660156 0-7 2.300781-13.824219 6.554687-19.582031 1.417969-1.859376 2.660157-3.8125 3.898438-5.761719h12.40625c4.433594 0 7.976562-3.542969 7.976562-7.972657 0-4.429687-3.542968-7.976562-7.976562-7.976562h-2.570312c2.75-5.140625 5.050781-10.542969 7.179687-15.949219h11.34375c4.429687 0 7.972656-3.542969 7.972656-7.976562 0-4.429688-3.542969-7.972657-7.972656-7.972657h-6.027344c1.507813-5.316406 2.746094-10.632812 3.722657-15.953124h10.277343c4.429688 0 7.976563-3.542969 7.976563-7.972657 0-4.429687-3.546875-7.976562-7.976563-7.976562h-8.507812c.179687-2.480469.355469-4.960938.445312-7.441407.089844-1.242187.089844-2.394531.089844-3.632812v-11.785156c0-8.773438 3.453125-17.015625 9.65625-23.21875s14.445313-9.65625 23.21875-9.65625h14.972656c2.128907 0 4.164063-.800782 5.671875-2.304688l11.785156-11.785156c1.152344-1.152344 2.746094-1.773438 4.34375-1.773438 4.960938 0 7.972657 4.078126 7.972657 8.0625 0 1.863282-.621094 3.546876-1.859375 5.050782l-18.078125 21.710937c-.621094.796875-1.152344 1.683594-1.417969 2.570313l-9.746094 29.066406v.085938l-9.304687 27.648437c-7.976563 24.011719-22.242188 45.632813-41.203125 62.558594zm121.929687-96.144531c-17.457031 1.773437-35.269531 2.128906-53.078125 1.066406l.707032-2.21875 24.015624-4.074219 60.519532-15.152344c24.457031-6.113281 46.789062-18.699219 64.597656-36.507812l6.203125-6.203125c1.507813-1.507813 2.304687-3.546875 2.304687-5.671875 0-10.542969 8.507813-19.050781 18.964844-19.050781 1.0625 0 2.214844.089843 3.1875.265624 3.457032.621094 7.179688.886719 11.078125.886719 8.59375 0 17.011719-1.597656 25.078125-4.785156l32.960938-13.203125c15.066406-6.027344 32.078125-3.191406 44.21875 7.265625 0 .707031 0 1.328125-.089844 2.039063-.085938.972656-.175781 1.949218-.265625 2.921874-.175781 1.242188-.265625 2.480469-.53125 3.722657-.175781.976562-.265625 1.949219-.53125 2.925781-.265625 1.238281-.53125 2.480469-.796875 3.632812-.175781.617188-.265625 1.238282-.445312 1.859376-19.136719-11.34375-42.265626-12.847657-62.914063-4.164063-.796875.175781-1.503906.53125-2.125.886719-.710937.351562-1.507813.53125-2.214844.886718-7.53125 3.808594-16.039062 5.757813-24.457031 5.757813h-17.101562c-3.015626 0-5.761719 1.683594-7.179688 4.429687-.085938.179688-7.53125 14.976563-22.417969 29.863282-14.886719 14.886718-61.230469 38.101562-61.761719 38.367187-.179687.089844-.265624.269531-.445312.355469zm114.929688-9.570313-34.027344 4.699219h-7.796875c14-8.066406 29.683594-17.988282 37.925781-26.230469 11.695313-11.695313 19.316407-23.394531 22.949219-29.597656h12.40625c7.089844 0 14.089844-1.152344 20.824219-3.277344-1.773438 6.734375-5.140625 14.976563-11.699219 21.53125-15.152344 15.152344-38.457031 30.75-38.632812 30.925781-.796876.53125-1.417969 1.242188-1.949219 1.949219zm65.925781-11.429687c-6.824219 2.570312-13.910156 4.34375-21.175781 5.316406l-12.496094 1.683594c6.558594-5.140626 13.644531-11.164063 19.671875-17.191407 13.292969-13.289062 16.925781-30.925781 17.898438-39.785156 7.710937-2.660156 15.863281-3.542969 23.75-2.570313-.710938 3.277344-2.480469 9.039063-6.558594 17.28125-5.9375 11.605469-16.304688 28-21.089844 35.265626zm-11.960938 104.121093c7.089844 11.339844 10.632813 24.457031 10.542969 37.746094-5.757812-5.757813-11.871093-10.988281-18.253906-16.039063v-14c0-4.429687-3.542969-7.976562-7.972656-7.976562-4.433594 0-7.976563 3.546875-7.976563 7.976562v2.304688c-7.710937-5.050781-15.683594-9.660156-23.925781-13.734375v-12.496094c0-4.429687-3.542969-7.972656-7.976563-7.972656-4.429687 0-7.972656 3.542969-7.972656 7.972656v5.40625c-7.796875-3.101562-15.773437-5.9375-23.925781-8.152343v-13.203126c0-4.429687-3.542969-7.976562-7.976563-7.976562-4.429687 0-7.972656 3.546875-7.972656 7.976562v9.214844c-2.925781-.796875-5.671875-2.214844-7.886718-4.429687l-2.480469-2.480469c-5.671875-5.671875-5.671875-14.976562 0-20.648438 1.503906-1.503906 2.300781-3.542968 2.300781-5.671874v-15.949219h15.953125c0 3.191406 1.859375 6.027343 4.695313 7.265625l33.050781 14.710937c24.015625 10.722657 43.953125 28 57.777343 50.15625zm47.050782-126.183593-5.492188 4.429687c2.039063-3.632813 4.074219-7.265625 5.671875-10.546875 4.519531-8.949219 6.644531-15.683594 7.707031-20.289062 2.925782 1.238281 5.671876 2.746093 8.417969 4.515624-.265625.621094-.617187 1.152344-.886719 1.773438-.441406.796875-.882812 1.59375-1.328124 2.394531-.707032 1.238281-1.503907 2.390625-2.304688 3.542969-.441406.621094-.796875 1.328125-1.328125 1.949219-1.238281 1.773437-2.65625 3.542969-4.074219 5.226562zm-181.386719-4.433594c1.59375 1.597656 3.632813 2.304687 5.671875 2.304687 2.035156 0 4.074219-.796875 5.667969-2.304687l32.789062-32.785156c3.101563-3.101563 3.101563-8.152344 0-11.253907l-16.394531-16.394531c-12.140625-12.136719-31.898438-12.136719-44.039062 0-12.140626 12.140625-12.140626 31.902344 0 44.042969zm-5.050781-49.179688c2.921875-2.921875 6.910156-4.429687 10.722656-4.429687 3.898438 0 7.796875 1.507812 10.71875 4.429687l10.722656 10.722656-21.53125 21.535157-10.722656-10.722657c-5.847656-5.9375-5.847656-15.597656.089844-21.535156zm115.726562-179.347656v-7.976562c0-8.773438-7.175781-15.949219-15.949218-15.949219-4.433594 0-7.976563 3.542969-7.976563 7.972656 0 4.433594 3.542969 7.976563 7.976563 7.976563h1.328124c4.253907 0 8.328126 1.683593 11.253907 4.695312zm19.230469-3.28125c3.011719-3.011719 7.085937-4.695312 11.25-4.695312h1.332031c4.429688 0 7.972656-3.542969 7.972656-7.976563 0-4.429687-3.542968-7.972656-7.972656-7.972656-8.773437 0-15.949218 7.175781-15.949218 15.949219v7.976562zm-19.230469-28.621094v-7.976562c0-8.769532-7.175781-15.949219-15.949218-15.949219-4.433594 0-7.976563 3.546875-7.976563 7.976563 0 4.429687 3.542969 7.972656 7.976563 7.972656h1.328124c4.253907 0 8.328126 1.6875 11.253907 4.699218zm19.230469-3.277344c3.011719-3.011718 7.085937-4.699218 11.25-4.699218h1.332031c4.429688 0 7.972656-3.542969 7.972656-7.972656 0-4.429688-3.542968-7.976563-7.972656-7.976563-8.773437 0-15.949218 7.179687-15.949218 15.949219v7.976562zm-19.230469-28.621093v-7.976563c0-8.773437-7.175781-15.949218-15.949218-15.949218-4.433594 0-7.976563 3.542968-7.976563 7.972656 0 4.433594 3.542969 7.976562 7.976563 7.976562h1.328124c4.253907 0 8.328126 1.683594 11.253907 4.695313zm19.230469-3.28125c3.011719-3.011719 7.085937-4.695313 11.25-4.695313h1.332031c4.429688 0 7.972656-3.542968 7.972656-7.976562 0-4.429688-3.542968-7.972656-7.972656-7.972656-8.773437 0-15.949218 7.175781-15.949218 15.949218v7.976563zm0 0" fill="url(#linear0)"/></svg>