<svg height="512" viewBox="0 0 512 512" width="512" xmlns="http://www.w3.org/2000/svg" xmlns:xlink="http://www.w3.org/1999/xlink"><linearGradient id="linear-gradient" gradientUnits="userSpaceOnUse" x1="87.912" x2="421.044" y1="414.38" y2="81.248"><stop offset="0" stop-color="#41dfd0"/><stop offset="1" stop-color="#ee83ef"/></linearGradient><g id="gradient"><path d="m380.044 121.039a24.63 24.63 0 0 1 -7.482-9.157l-1.389-2.915a29.591 29.591 0 0 1 .17-23.647 45.77 45.77 0 0 0 2.75-28.891l-6.232-26.662a8 8 0 0 0 -13.921-3.319l-34.42 41.058a42.482 42.482 0 0 0 -8.62 37.694 42.489 42.489 0 0 0 -35.61 15.065l-34.42 41.057a8 8 0 0 0 5.7 13.128l27.342 1.484a45.726 45.726 0 0 0 27.968-7.75 29.589 29.589 0 0 1 23.187-4.31 24.982 24.982 0 0 1 12.769 8.932l24.864 33.309a54.083 54.083 0 0 1 -57.556 84.532l-86.784-31.624a553.6 553.6 0 0 0 -97.16-25.669l-29.531-4.983a35.931 35.931 0 0 0 -41.657 30.563c-1.153 8.242-2.021 29.8-2 31.5a207.46 207.46 0 0 0 207.988 205.566h.024a206.884 206.884 0 0 0 146.247-59.869 209.318 209.318 0 0 0 21.4-24.723 8.015 8.015 0 0 0 1.585-2.158 208.783 208.783 0 0 0 16.432-215.057 209.811 209.811 0 0 0 -61.644-73.154zm-314.418 141.922 46.974 82.364a188.876 188.876 0 0 0 87.63 78.875c4.683 2.053 9.5 3.918 14.339 5.585a97.617 97.617 0 0 0 10.658 14.593 229.184 229.184 0 0 1 -36.9-12.168 172.468 172.468 0 0 1 -82.631-74.474l-41.626-74.889a194.248 194.248 0 0 1 1.556-19.886zm139.559 145.926a172.935 172.935 0 0 1 -74.527-64.6 154.288 154.288 0 0 0 69.958 27.092v8.135a97.487 97.487 0 0 0 4.569 29.373zm50.837 71.113h-.022a191.405 191.405 0 0 1 -189.274-159.438l24.981 44.949a188.543 188.543 0 0 0 90.334 81.417 245.2 245.2 0 0 0 63.71 17.511 17.922 17.922 0 0 0 9.777 2.92 18.31 18.31 0 0 0 6.677-1.28q8.049.53 16.109.54a245.27 245.27 0 0 0 45.82-4.317l20.891-3.973a191.872 191.872 0 0 1 -89.003 21.671zm135.008-55.256q-5.761 5.688-11.921 10.815l-57.964 11.024a229.24 229.24 0 0 1 -47.259 3.986 18.941 18.941 0 0 0 -.136-4.217q-.263-1.809-.492-3.62c-.117-.922-.217-1.849-.321-2.774.884.012 1.769.042 2.652.042a187.569 187.569 0 0 0 39.09-4.118l82.587-17.593q-3.036 3.288-6.236 6.455zm22.2-26.214-101.883 21.7a171.652 171.652 0 0 1 -39.509 3.708 197.077 197.077 0 0 1 1.113-26.616 195.032 195.032 0 0 0 153.4-22.947l1.935-1.206a190 190 0 0 1 -15.057 25.361zm25.328-50.612-20.667 12.882a179.032 179.032 0 0 1 -142.572 20.586c.468-2.488.973-4.977 1.534-7.468l8.207-36.452a8 8 0 1 0 -15.609-3.514l-8.207 36.448a217.3 217.3 0 0 0 -5.067 61.53v.079q.408 6.4 1.2 12.736.248 1.951.531 3.9a2.134 2.134 0 0 1 -1.043 2.29c-.076.042-.153.083-.228.127a2.163 2.163 0 0 1 -2.668-.43l-13.089-12.953a82.358 82.358 0 0 1 -24.272-58.168v-43.511a8 8 0 0 0 -16 0v19.229a138.532 138.532 0 0 1 -99.154-65.09l-26.281-43.329a19.729 19.729 0 0 1 10.41-2.951 20.656 20.656 0 0 1 3.428.289l29.531 4.984a537.339 537.339 0 0 1 94.336 24.925l87.087 31.734c.2.071.392.135.593.19a70.083 70.083 0 0 0 74.961-109.436l-24.863-33.31a41.074 41.074 0 0 0 -21.307-14.778c-.126-.037-.253-.07-.381-.1a45.637 45.637 0 0 0 -36.057 6.577 29.717 29.717 0 0 1 -18.135 5.025l-11.365-.616 24.141-28.8a26.421 26.421 0 0 1 37.223-3.273 8 8 0 1 0 10.279-12.262 26.423 26.423 0 0 1 -3.273-37.223l24.141-28.8 2.591 11.083a29.682 29.682 0 0 1 -1.783 18.734 45.626 45.626 0 0 0 -.182 36.652c.037.086.076.171.116.255l1.451 3.048a40.691 40.691 0 0 0 12.377 15.114 193.744 193.744 0 0 1 56.919 67.545 189.9 189.9 0 0 1 20.572 89.043 193.4 193.4 0 0 1 -9.426 57.459zm-259.958-48.205a13 13 0 1 1 -13-13 13 13 0 0 1 13 13zm-121.753-187.7-.6 7.319a71.736 71.736 0 0 0 16.885 52.625 72.662 72.662 0 0 0 39.033 23.71l18.132 4.133a8 8 0 0 0 9.764-8.278l-1.11-18.563a72.665 72.665 0 0 0 -17-42.387c-.391-.46-2.037-2.408-2.562-2.86a71.678 71.678 0 0 0 -46.589-22.412l-7.319-.6a8 8 0 0 0 -8.631 7.316zm58.012 36.02a56.773 56.773 0 0 1 7.451 20.08l-11.447-13.5zm-10.845-12.965-4.057 6.679-15.022-17.72a55.579 55.579 0 0 1 19.079 11.041zm-8.99 25.6.013.016 15.068 17.774a56.6 56.6 0 0 1 -24.771-16.849 55.844 55.844 0 0 1 -12.6-27.238zm78.917-29.553a8 8 0 0 0 6.54-1.164l2.8-1.933a43.427 43.427 0 0 0 -13.339-77.655l-3.177-.859a43.353 43.353 0 0 0 -36.016 6.187l-7.3 5.039a8 8 0 0 0 -.261 12.978l3.375 2.537a144.307 144.307 0 0 1 42.208 50.692 8 8 0 0 0 5.17 4.18zm5.5-56.658a27.427 27.427 0 0 1 -.967 36.749c-.794-1.373-1.616-2.729-2.451-4.077zm-17.483 13.333a160.219 160.219 0 0 0 -20.343-20.058 27.371 27.371 0 0 1 20.973-2.781l1.71.463zm79.532 119.21a8 8 0 0 0 .572-7.267l-3.41-8.187a43.342 43.342 0 0 0 -26.936-24.692l-3.137-1a43.426 43.426 0 0 0 -53.241 58.082l1.308 3.141a8 8 0 0 0 11.474 3.8 144.284 144.284 0 0 1 62.927-19.786l4.212-.308a8 8 0 0 0 6.231-3.783zm-68.743 3.3c-1.431.682-2.857 1.377-4.267 2.1a27.437 27.437 0 0 1 19.076-31.429zm22.293-8.653 10.141-20.084 1.687.537a27.369 27.369 0 0 1 16.132 13.687 160.215 160.215 0 0 0 -27.96 5.858zm15.3-67.988a8 8 0 0 1 0-11.314l8-8a8 8 0 0 1 11.314 11.314l-8 8a8 8 0 0 1 -11.314 0zm27.314 92.686a8 8 0 0 1 0 11.314l-8 8a8 8 0 0 1 -11.314-11.314l8-8a8 8 0 0 1 11.317-.002zm-91.314-76.686a8 8 0 0 1 11.314-11.314l8 8a8 8 0 0 1 -11.314 11.314z" fill="url(#linear-gradient)"/></g></svg>