<svg id="Layer_1" data-name="Layer 1" xmlns="http://www.w3.org/2000/svg" viewBox="0 0 366.67 154.13"><defs><style>.cls-1{isolation:isolate;font-size:104.76px;font-family:gAbAcHiTA-FFP, gAbAcHiTA FFP;letter-spacing:-0.02em;}.cls-1,.cls-2{fill:#921bb6;}</style></defs><title>PM LOGO</title><text class="cls-1" transform="translate(139.97 122.07)">pil money</text><g id="l7pAv3.tif"><path class="cls-2" d="M68.86,152l-2.54-.27A68.48,68.48,0,0,1,53.2,149a67.2,67.2,0,0,1-20.63-10.76,68.55,68.55,0,0,1-9.44-8.82c-.11-.12-.31-.24-.24-.42s.3-.1.46-.1c.92,0,1.84,0,2.76,0,.46,0,.62-.12.62-.61,0-2,0-4,0-5.91,0-.48.12-.68.61-.79a15.45,15.45,0,0,0,7.53-3.88,15.14,15.14,0,0,0,4.28-8.31,22.61,22.61,0,0,0-1.07-13,22.53,22.53,0,0,0-4.57-6.8,63.51,63.51,0,0,0-7.75-6.72,36.33,36.33,0,0,1-6.9-6.5A11.28,11.28,0,0,1,16.5,67a4.82,4.82,0,0,1,4.22-4.08,9.05,9.05,0,0,1,3.2,0,5.18,5.18,0,0,1,4.36,4.86,31.76,31.76,0,0,1,.08,3.52c0,.43.13.6.58.6H39c.3,0,.51,0,.53-.44a24.8,24.8,0,0,0-1-8.34A14.11,14.11,0,0,0,28,53.42c-1.28-.34-1.28-.32-1.28-1.63s0-2.86,0-4.3c0-.48-.13-.65-.63-.64-2.5,0-5,0-7.51,0-.16,0-.39.07-.48-.08s.1-.34.2-.48A68.27,68.27,0,0,1,30,33.46,67,67,0,0,1,64,18.18a67.81,67.81,0,0,1,10.84-.67A1.35,1.35,0,0,0,76,16.87a15.92,15.92,0,0,1,2-2.37c.44-.4.86-.83,1.26-1.27a7.24,7.24,0,0,1,1.09-.9c.95-.73,2-1.33,3-2.07.67-.53,1.47-.76,2.09-1.33a.26.26,0,0,1,.13-.08,14.7,14.7,0,0,0,2.66-1.26c1-.48,2.1-.85,3.15-1.27A16.34,16.34,0,0,1,95.78,5.1a10.74,10.74,0,0,0,2-.33c.89-.26,1.27,0,1.42.87A13.74,13.74,0,0,1,99,11a4.91,4.91,0,0,1-.89,1.71,17.46,17.46,0,0,1-3.75,3.78,15.28,15.28,0,0,1-1.53,1,2.24,2.24,0,0,0-.61.54c-.29.35-.27.63.15.81a8.58,8.58,0,0,1,2.81,2.24,4.38,4.38,0,0,1,1.25,4.07.85.85,0,0,1-.52.64,11.13,11.13,0,0,1-2.77,1c-1.15.19-2.28.49-3.46.57a13.36,13.36,0,0,1-3.33-.29,15.89,15.89,0,0,1-1.93-.45c-.89-.33-1.76-.7-2.62-1.12-.39-.19-.75-.46-1.13-.69-.83-.49-.86-1.15-.12-1.76a20.25,20.25,0,0,1,2.23-1.56c.31-.2.38-.4.08-.69-.49-.47-1-.83-1.7-.36a2.4,2.4,0,0,1-1,.2,6.88,6.88,0,0,0-2,.57,4.76,4.76,0,0,1-1.57.43,1.46,1.46,0,0,0-.5.12,17.14,17.14,0,0,1-2.79.74,22.38,22.38,0,0,0-2.47.94,32.29,32.29,0,0,0-4.08,1.71c-1.16.69-2.37,1.27-3.49,2.05s-2.42,1.67-3.56,2.62a31.39,31.39,0,0,0-4,4,32.16,32.16,0,0,0-2.15,2.95,35.05,35.05,0,0,0-2,3.5c-.84,1.63-1.41,3.38-2.1,5.07a24.15,24.15,0,0,0-.69,3,43.48,43.48,0,0,0-1.13,7.7,12.88,12.88,0,0,0,.08,2.24,36.9,36.9,0,0,0,.76,5.44,37.38,37.38,0,0,0,1.23,4.67c.4,1,.79,2.09,1.23,3.11A19.31,19.31,0,0,0,52.06,74a34.4,34.4,0,0,0,2.27,3.25,13.09,13.09,0,0,0,1.91,2c.49.42.9.92,1.37,1.36a10,10,0,0,0,6.06,2.75c3.31.37,6.62,0,9.93,0,4.8,0,9.61,0,14.41-.11,3.22-.06,6.43,0,9.65-.09,3.5-.09,7,0,10.52-.11,3.23-.08,6.44,0,9.66-.09s6.57,0,9.86-.11,6.43,0,9.65-.09c1.16,0,2.31,0,3.47-.07v5.62a3.54,3.54,0,0,0-.08.45c-.15,1.51-.25,3-.43,4.52a66.17,66.17,0,0,1-4.58,17.27,67.67,67.67,0,0,1-24.35,29.87,66.47,66.47,0,0,1-18.5,8.83,67.88,67.88,0,0,1-12.14,2.46q-1.29.15-2.58.27Zm3.83-5.35c1.49-.06,3.39-.1,5.29-.27a67.06,67.06,0,0,0,11.25-2,65.76,65.76,0,0,0,41.49-33.59A2.69,2.69,0,0,0,129,107.2a9.09,9.09,0,0,0-1.38,0,2.08,2.08,0,0,0-2,1.23c-.27.51-.54,1-.82,1.53a59.85,59.85,0,0,1-16.85,19.27,58.79,58.79,0,0,1-18.15,9.16,59.77,59.77,0,0,1-21.84,2.45,60.66,60.66,0,0,1-11.51-2A25.56,25.56,0,0,1,52,137.3a3,3,0,0,0-4,1.34,2.92,2.92,0,0,0-.14.31,3,3,0,0,0,2.23,3.92c.45.11.89.24,1.32.38A67.74,67.74,0,0,0,72.69,146.65Zm.85-10.4A50.82,50.82,0,0,0,117.48,111a1.91,1.91,0,0,0,.31-.8,2.85,2.85,0,0,0-2.07-2.94,2.82,2.82,0,0,0-3.33,1.18,45.26,45.26,0,0,1-36.82,22.08,43.44,43.44,0,0,1-10.12-.7,39,39,0,0,1-9.21-2.77,2.8,2.8,0,0,0-1.64-.21A3,3,0,0,0,52,129.7a3,3,0,0,0,2.42,3,6.36,6.36,0,0,1,1,.27A50.92,50.92,0,0,0,73.54,136.25Zm.27-11.35a44.63,44.63,0,0,0,5.16-.39,38.38,38.38,0,0,0,23.6-12.69,2.55,2.55,0,0,0,.69-2.24A2.92,2.92,0,0,0,98.32,108c-.52.6-1.08,1.17-1.65,1.73a32,32,0,0,1-9.6,6.58,32.61,32.61,0,0,1-19.46,2.35,29.67,29.67,0,0,1-7.43-2.31,3,3,0,1,0-2,5.58,2.09,2.09,0,0,0,.34.08,5.47,5.47,0,0,1,1,.27,39.79,39.79,0,0,0,14.27,2.61Zm27.32-32.14a4,4,0,0,0,4.07,4.15,4.13,4.13,0,1,0-4.07-4.18Z" transform="translate(-6.27 -4.67)"/><path class="cls-2" d="M135.51,78.23a3.43,3.43,0,0,1-3.57-3.06,38.59,38.59,0,0,0-1.47-6.36,59.27,59.27,0,0,0-12.21-22.2A61.3,61.3,0,0,0,103,34a3.6,3.6,0,0,1-1.39-4.35,4.08,4.08,0,0,1,1.83-2.23,3.38,3.38,0,0,1,3.3.12,68.91,68.91,0,0,1,15.48,12.35A67.17,67.17,0,0,1,132.36,54a64.48,64.48,0,0,1,4.12,9.22,42.24,42.24,0,0,1,1.08,4.3c.47,2.09.88,4.2,1.48,6.26a3.61,3.61,0,0,1-2.59,4.39A3.31,3.31,0,0,1,135.51,78.23Z" transform="translate(-6.27 -4.67)"/><path class="cls-2" d="M6.27,85c0-2.09,0-3.93.14-5.76,0-.13,0-.32.13-.36s.21.16.27.27a29.06,29.06,0,0,0,6.38,7.71C15.45,89,18,90.67,20.32,92.62a24.45,24.45,0,0,1,5.83,6.3,11.83,11.83,0,0,1,1.46,8.46,5.16,5.16,0,0,1-5.15,4.45,10.1,10.1,0,0,1-2.8-.15,5.08,5.08,0,0,1-4.17-4.45,9.14,9.14,0,0,1-.12-1.48c0-1.63,0-3.27,0-4.9,0-.51-.13-.68-.65-.67-2,0-4,0-6,0-.75,0-.76,0-.92-.71a70.48,70.48,0,0,1-1.45-9.79C6.26,88.06,6.31,86.43,6.27,85Z" transform="translate(-6.27 -4.67)"/><path class="cls-2" d="M120.9,78.21a3.4,3.4,0,0,1-3.5-2.82,40.63,40.63,0,0,0-3-8.45,58.69,58.69,0,0,0-9.57-14.79,64.11,64.11,0,0,0-7.26-7,3.51,3.51,0,0,1-1.32-3.59,3.81,3.81,0,0,1,4.45-3,3.06,3.06,0,0,1,1.4.68,68.31,68.31,0,0,1,8.69,8.4,67.38,67.38,0,0,1,9.35,14,54.5,54.5,0,0,1,3.36,8.05c.45,1.42.67,2.91,1,4.37A3.69,3.69,0,0,1,120.9,78.21Z" transform="translate(-6.27 -4.67)"/><path class="cls-2" d="M105.89,78a3.26,3.26,0,0,1-3.39-2.1,59.78,59.78,0,0,0-6.45-11,50.18,50.18,0,0,0-5.09-6,3.77,3.77,0,0,1-.41-4.77,3.87,3.87,0,0,1,5-1.13,2.48,2.48,0,0,1,.59.48,65.52,65.52,0,0,1,6.52,7.78A72.89,72.89,0,0,1,109.4,73a3.77,3.77,0,0,1-2.24,4.92A4.92,4.92,0,0,1,105.89,78Z" transform="translate(-6.27 -4.67)"/><path class="cls-2" d="M86.9,77.32a4.89,4.89,0,1,1,4.89-4.87,4.88,4.88,0,0,1-4.89,4.87Z" transform="translate(-6.27 -4.67)"/><path class="cls-2" d="M17.07,48.4v4.41c0,.27-.16.34-.38.39A19.88,19.88,0,0,0,14,54c-.09,0-.18.12-.27,0s0-.16,0-.24a52.92,52.92,0,0,1,3.18-5.39S17,48.42,17.07,48.4Z" transform="translate(-6.27 -4.67)"/></g></svg>