<?xml version="1.0" encoding="utf-8"?>
<!-- Generator: Adobe Illustrator 24.0.0, SVG Export Plug-In . SVG Version: 6.00 Build 0)  -->
<svg version="1.1" id="Layer_1" xmlns="http://www.w3.org/2000/svg" xmlns:xlink="http://www.w3.org/1999/xlink" x="0px" y="0px"
	 viewBox="0 0 366.7 154.1" style="enable-background:new 0 0 366.7 154.1;" xml:space="preserve">
<style type="text/css">
	.st0{fill:#921BB6;}
</style>
<title>PM LOGO</title>
<g id="l7pAv3.tif">
	<path class="st0" d="M62.6,147.3l-2.5-0.3c-4.5-0.5-8.8-1.4-13.1-2.7c-7.5-2.4-14.4-6-20.6-10.8c-3.4-2.6-6.6-5.6-9.4-8.8
		c-0.1-0.1-0.3-0.2-0.2-0.4s0.3-0.1,0.5-0.1c0.9,0,1.8,0,2.8,0c0.5,0,0.6-0.1,0.6-0.6c0-2,0-4,0-5.9c0-0.5,0.1-0.7,0.6-0.8
		c2.8-0.6,5.4-1.9,7.5-3.9c2.3-2.2,3.8-5.2,4.3-8.3c0.9-4.3,0.6-8.9-1.1-13c-1.1-2.5-2.6-4.8-4.6-6.8c-2.4-2.4-5-4.7-7.8-6.7
		c-2.6-1.9-4.9-4-6.9-6.5c-2.2-2.6-3-6.1-2.4-9.4c0.3-2.2,2.1-3.8,4.2-4.1c1.1-0.2,2.1-0.2,3.2,0c2.4,0.4,4.2,2.4,4.4,4.9
		c0.1,1.2,0.1,2.3,0.1,3.5c0,0.4,0.1,0.6,0.6,0.6h10.1c0.3,0,0.5,0,0.5-0.4c0.1-2.8-0.2-5.6-1-8.3c-1.5-4.9-5.5-8.6-10.5-9.7
		c-1.3-0.3-1.3-0.3-1.3-1.6c0-1.3,0-2.9,0-4.3c0-0.5-0.1-0.7-0.6-0.6c-2.5,0-5,0-7.5,0c-0.2,0-0.4,0.1-0.5-0.1s0.1-0.3,0.2-0.5
		c3.3-4.8,7.3-9.1,11.7-12.8c9.7-8.2,21.4-13.5,34-15.3c3.6-0.5,7.2-0.7,10.8-0.7c0.5,0,0.9-0.2,1.2-0.6c0.6-0.9,1.3-1.6,2-2.4
		C72.2,9.4,72.6,9,73,8.6c0.3-0.3,0.7-0.6,1.1-0.9c0.9-0.7,2-1.3,3-2.1c0.7-0.5,1.5-0.8,2.1-1.3c0,0,0.1-0.1,0.1-0.1
		c0.9-0.3,1.8-0.8,2.7-1.3c1-0.5,2.1-0.8,3.2-1.3c1.4-0.6,2.9-1,4.4-1.2c0.7,0,1.3-0.2,2-0.3c0.9-0.3,1.3,0,1.4,0.9
		c0.3,1.8,0.2,3.6-0.2,5.4C92.5,7,92.2,7.5,91.8,8c-1,1.4-2.3,2.7-3.8,3.8c-0.5,0.4-1,0.7-1.5,1c-0.2,0.1-0.4,0.3-0.6,0.5
		c-0.3,0.4-0.3,0.6,0.2,0.8c1.1,0.5,2,1.3,2.8,2.2c1.1,1,1.6,2.6,1.2,4.1c-0.1,0.3-0.2,0.5-0.5,0.6c-0.9,0.5-1.8,0.8-2.8,1
		c-1.2,0.2-2.3,0.5-3.5,0.6c-1.1,0-2.2-0.1-3.3-0.3c-0.7-0.1-1.3-0.3-1.9-0.5c-0.9-0.3-1.8-0.7-2.6-1.1c-0.4-0.2-0.8-0.5-1.1-0.7
		c-0.8-0.5-0.9-1.1-0.1-1.8c0.7-0.6,1.5-1.1,2.2-1.6c0.3-0.2,0.4-0.4,0.1-0.7c-0.5-0.5-1-0.8-1.7-0.4c-0.3,0.1-0.7,0.2-1,0.2
		c-0.7,0.1-1.4,0.3-2,0.6c-0.5,0.2-1,0.4-1.6,0.4c-0.2,0-0.3,0.1-0.5,0.1c-0.9,0.3-1.8,0.6-2.8,0.7c-0.8,0.3-1.7,0.6-2.5,0.9
		c-1.4,0.5-2.8,1-4.1,1.7c-1.2,0.7-2.4,1.3-3.5,2s-2.4,1.7-3.6,2.6c-1.5,1.2-2.8,2.5-4,4c-0.8,0.9-1.5,1.9-2.2,3
		c-0.7,1.1-1.4,2.3-2,3.5c-0.8,1.6-1.4,3.4-2.1,5.1c-0.3,1-0.5,2-0.7,3c-0.6,2.5-1,5.1-1.1,7.7c0,0.7,0,1.5,0.1,2.2
		c0.1,1.8,0.4,3.6,0.8,5.4c0.3,1.6,0.7,3.1,1.2,4.7c0.4,1,0.8,2.1,1.2,3.1c0.3,0.9,0.7,1.7,1.1,2.5c0.7,1.1,1.5,2.2,2.3,3.2
		c0.6,0.7,1.2,1.4,1.9,2c0.5,0.4,0.9,0.9,1.4,1.4c1.6,1.6,3.8,2.6,6.1,2.8c3.3,0.4,6.6,0,9.9,0c4.8,0,9.6,0,14.4-0.1
		c3.2-0.1,6.4,0,9.7-0.1c3.5-0.1,7,0,10.5-0.1c3.2-0.1,6.4,0,9.7-0.1s6.6,0,9.9-0.1c3.3-0.1,6.4,0,9.6-0.1c1.2,0,2.3,0,3.5-0.1v5.6
		c0,0.1-0.1,0.3-0.1,0.4c-0.1,1.5-0.2,3-0.4,4.5c-0.7,5.9-2.3,11.7-4.6,17.3c-5.1,12.1-13.5,22.5-24.3,29.9
		c-5.7,3.9-11.9,6.9-18.5,8.8c-4,1.2-8,2-12.1,2.5c-0.9,0.1-1.7,0.2-2.6,0.3L62.6,147.3z M66.4,142c1.5-0.1,3.4-0.1,5.3-0.3
		c3.8-0.3,7.6-1,11.2-2c18-4.8,33-17,41.5-33.6c0.6-1.4-0.1-2.9-1.5-3.5c-0.1,0-0.2-0.1-0.2-0.1c-0.5,0-0.9,0-1.4,0
		c-0.9,0-1.7,0.4-2,1.2c-0.3,0.5-0.5,1-0.8,1.5c-4.2,7.6-9.9,14.1-16.8,19.3c-5.5,4.1-11.6,7.2-18.2,9.2c-7.1,2.2-14.5,3-21.8,2.4
		c-3.9-0.3-7.7-1-11.5-2c-1.5-0.4-3-0.9-4.5-1.5c-1.5-0.7-3.3-0.1-4,1.3c-0.1,0.1-0.1,0.2-0.1,0.3c-0.5,1.6,0.3,3.3,1.9,3.8
		c0.1,0,0.2,0.1,0.4,0.1c0.5,0.1,0.9,0.2,1.3,0.4C52,140.8,59.2,142,66.4,142z M67.3,131.6c18.1,0,34.8-9.6,43.9-25.2
		c0.2-0.2,0.3-0.5,0.3-0.8c0.1-1.3-0.8-2.6-2.1-2.9c-1.2-0.4-2.6,0.1-3.3,1.2c-7.8,13.1-21.6,21.4-36.8,22.1
		c-3.4,0.2-6.8-0.1-10.1-0.7c-3.2-0.5-6.3-1.5-9.2-2.8c-0.5-0.2-1.1-0.3-1.6-0.2c-1.4,0.2-2.5,1.4-2.6,2.9c0,1.5,1,2.7,2.4,3
		c0.3,0.1,0.7,0.2,1,0.3C54.9,130.5,61.1,131.6,67.3,131.6z M67.5,120.2c1.7,0,3.4-0.2,5.2-0.4c9.1-1.3,17.5-5.8,23.6-12.7
		c0.6-0.6,0.8-1.4,0.7-2.2c-0.3-1.6-1.8-2.7-3.4-2.4c-0.6,0.1-1.1,0.4-1.6,0.8c-0.5,0.6-1.1,1.2-1.7,1.7c-2.8,2.8-6,5-9.6,6.6
		c-6.1,2.8-12.9,3.6-19.5,2.3c-2.6-0.4-5.1-1.2-7.4-2.3c-1.5-0.8-3.3-0.3-4.1,1.2s-0.3,3.3,1.2,4.1c0.3,0.1,0.6,0.3,0.9,0.3
		c0.1,0,0.2,0.1,0.3,0.1c0.3,0.1,0.7,0.1,1,0.3C57.8,119.3,62.6,120.2,67.5,120.2L67.5,120.2z M94.9,88.1c-0.1,2.2,1.6,4.1,3.8,4.1
		c0.1,0,0.1,0,0.2,0c2.3,0,4.2-1.8,4.2-4.1c0-2.3-1.8-4.2-4.1-4.2S94.9,85.8,94.9,88.1C94.9,88.1,94.9,88.1,94.9,88.1L94.9,88.1z"/>
	<path class="st0" d="M129.2,73.6c-1.8,0.1-3.4-1.3-3.6-3.1c-0.3-2.2-0.8-4.3-1.5-6.4c-2.4-8.2-6.6-15.8-12.2-22.2
		c-4.4-5-9.5-9.3-15.3-12.6c-1.4-0.9-2-2.8-1.4-4.4c0.3-0.9,1-1.7,1.8-2.2c1-0.5,2.3-0.5,3.3,0.1c5.7,3.3,10.9,7.5,15.5,12.4
		c4,4.2,7.4,9,10.1,14.1c1.6,3,3,6,4.1,9.2c0.4,1.4,0.8,2.8,1.1,4.3c0.5,2.1,0.9,4.2,1.5,6.3c0.5,1.9-0.7,3.9-2.6,4.4
		C129.9,73.6,129.6,73.6,129.2,73.6z"/>
	<path class="st0" d="M0,80.3c0-2.1,0-3.9,0.1-5.8c0-0.1,0-0.3,0.1-0.4s0.2,0.2,0.3,0.3c1.7,2.9,3.8,5.5,6.4,7.7
		C9.2,84.3,11.7,86,14,88c2.3,1.7,4.3,3.9,5.8,6.3c1.5,2.5,2,5.6,1.5,8.5c-0.4,2.6-2.6,4.5-5.1,4.4c-0.9,0.1-1.9,0-2.8-0.2
		c-2.2-0.4-3.9-2.2-4.2-4.4c-0.1-0.5-0.1-1-0.1-1.5c0-1.6,0-3.3,0-4.9c0-0.5-0.1-0.7-0.6-0.7c-2,0-4,0-6,0c-0.8,0-0.8,0-0.9-0.7
		c-0.7-3.2-1.2-6.5-1.4-9.8C0,83.4,0,81.8,0,80.3z"/>
	<path class="st0" d="M114.6,73.5c-1.7,0.1-3.2-1.1-3.5-2.8c-0.7-2.9-1.7-5.8-3-8.4c-2.4-5.4-5.7-10.4-9.6-14.8
		c-2.2-2.5-4.7-4.9-7.3-7c-1.1-0.8-1.6-2.2-1.3-3.6c0.4-2.1,2.4-3.4,4.4-3c0.5,0.1,1,0.3,1.4,0.7c3.1,2.5,6,5.3,8.7,8.4
		c3.7,4.3,6.8,9,9.3,14c1.3,2.6,2.5,5.3,3.4,8.1c0.4,1.4,0.7,2.9,1,4.4c0.3,2-1.2,3.9-3.2,4.1C114.9,73.5,114.8,73.5,114.6,73.5z"/>
	<path class="st0" d="M99.6,73.3c-1.5,0.2-2.9-0.7-3.4-2.1c-1.8-3.9-3.9-7.6-6.4-11c-1.5-2.1-3.2-4.1-5.1-6
		c-1.3-1.3-1.4-3.3-0.4-4.8c1.1-1.6,3.3-2.1,5-1.1c0.2,0.1,0.4,0.3,0.6,0.5c2.4,2.4,4.6,5,6.5,7.8c2.6,3.7,4.9,7.6,6.7,11.7
		c0.8,1.9-0.2,4.1-2.1,4.9c0,0-0.1,0-0.1,0C100.5,73.3,100,73.4,99.6,73.3z"/>
	<path class="st0" d="M80.6,72.7c-2.7,0-4.9-2.2-4.9-4.9c0-2.7,2.2-4.9,4.9-4.9c2.7,0,4.9,2.2,4.9,4.9c0,0,0,0,0,0
		C85.5,70.5,83.3,72.7,80.6,72.7C80.6,72.7,80.6,72.7,80.6,72.7z"/>
	<path class="st0" d="M10.8,43.7v4.4c0,0.3-0.2,0.3-0.4,0.4c-0.9,0.2-1.8,0.5-2.7,0.8c-0.1,0-0.2,0.1-0.3,0c-0.1-0.1,0-0.2,0-0.2
		c1-1.9,2-3.7,3.2-5.4C10.6,43.7,10.7,43.8,10.8,43.7z"/>
</g>
<g id="_x37_QVYTx.tif">
	<g>
		<path class="st0" d="M235.9,38.1c0.2-0.4,0.4-0.8,0.6-1.2c1.4-2.7,3.5-4,6.4-4c1.1,0,2.1,0,3.2,0.3c2.8,0.6,4.3,2.4,5,5.2
			c0.4,2,0.5,4,0.5,6c0,19.7,0,39.3,0,59c0,2.1-1.5,3.8-3.4,3.9c-1.2,0.1-2.4,0.1-3.6,0c-1.9-0.1-3.4-1.7-3.4-3.8c0-0.2,0-0.5,0-0.7
			c0-18.2,0-36.4,0-54.6c0-0.9,0-1.8-0.2-2.7c-0.3-1.6-1.5-2.5-3-2.1c-0.7,0.2-1.1,0.7-1.4,1.4c-0.2,0.6-0.3,1.3-0.3,2
			c0,0.4,0,0.9,0,1.3c0,21.2,0,42.3,0,63.5c0,2.6-1.9,4.3-4,4.2c-0.9,0-1.8,0-2.7,0c-2.2,0-3.8-1.7-3.8-4.1c0-6.3,0-12.5,0-18.8
			c0-14.9,0-29.8,0-44.8c0-0.9,0-1.7-0.2-2.6c-0.3-1.7-1.5-2.5-2.9-2.1c-0.8,0.2-1.2,0.8-1.4,1.6c-0.3,1-0.3,2.1-0.3,3.1
			c0,19.9,0,39.8,0,59.7c0,4.1-0.1,8.2,0,12.3c0,2.8-2,4.3-4,4.2c-1.1-0.1-2.2,0.1-3.3-0.1c-1.9-0.4-3.1-1.9-3.1-4
			c0-27.5,0-55,0-82.5c0-2.3,1.6-4,3.7-4.1c1.4,0,2.8,0,4.3,0c0.9,0,1.5,0.5,1.7,1.4c0.2,1,0.4,2,0.7,3c0,0.2,0,0.4,0.3,0.4
			c0.3,0,0.3-0.2,0.4-0.4c0.6-1.4,1.5-2.6,2.5-3.6c2.8-2.7,8.1-2.4,10.4,1.1C235,36.5,235.4,37.3,235.9,38.1z"/>
		<path class="st0" d="M253.6,79.1c0-11.2,0-22.4,0-33.5c0-2.3,0.4-4.6,1.5-6.6c1.6-2.9,4-4.6,7-5.4c3.9-1,7.8-0.9,11.4,1
			c3.6,1.8,5.4,5,5.9,9.1c0.1,0.7,0.1,1.5,0.1,2.2c0,22.3,0,44.6,0,66.9c0,2.3-0.4,4.5-1.4,6.5c-1.6,2.9-4,4.6-7,5.4
			c-4.1,1.1-8.1,0.9-11.9-1.2c-3.2-1.8-4.9-4.7-5.4-8.4c-0.1-0.9-0.1-1.7-0.1-2.6C253.6,101.4,253.6,90.2,253.6,79.1z M269.1,79.2
			c0-11.1,0-22.1,0-33.2c0-0.5,0-1.1,0-1.6c-0.1-1.8-0.8-2.4-2.5-2.4c-0.1,0-0.3,0-0.4,0c-1,0.1-1.6,0.5-1.8,1.6
			c-0.2,0.8-0.2,1.5-0.2,2.3c0,18.4,0,36.9,0,55.3c0,4,0,8,0,11.9c0,0.7,0.1,1.4,0.3,2c0.2,0.7,0.6,1.1,1.3,1.2
			c0.6,0.1,1.3,0.1,1.9,0c0.7-0.1,1.1-0.6,1.3-1.3c0.2-0.8,0.2-1.7,0.2-2.5C269.1,101.4,269.1,90.3,269.1,79.2z"/>
		<path class="st0" d="M140.5,87.2c0-16.4,0-32.8,0-49.2c0-3,2.1-4.5,4.1-4.4c1.3,0.1,2.5,0,3.8,0c1,0,1.6,0.5,1.9,1.6
			c0.2,0.8,0.3,1.6,0.5,2.3c0,0.2,0,0.4,0.2,0.4c0.2,0,0.3-0.1,0.4-0.3c0.8-1.3,1.7-2.3,2.9-3.2c1.7-1.3,3.6-1.9,5.7-1.7
			c2.6,0.2,4.3,1.7,5.3,4.2c0.8,2,1.1,4.2,1.1,6.4c0,15.2,0,30.4,0,45.6c0,1.7-0.2,3.4-0.7,5.1c-1.6,6.1-8.3,6.7-11.6,3.7
			c-1-1-1.9-2-2.6-3.3c-0.1-0.1-0.1-0.2-0.2-0.3c-0.1-0.1-0.2-0.1-0.4-0.1c-0.1,0-0.1,0.2-0.1,0.3c0,0.1,0,0.3,0,0.4
			c0,14,0,27.9,0,41.9c0,2.6-1.9,4.3-4,4.2c-1.1,0-2.3,0.1-3.4-0.1c-1.9-0.4-3.1-1.9-3.1-3.9c0-1.2,0-2.5,0-3.7
			C140.5,117.8,140.5,102.5,140.5,87.2z M156,66.3c0-6,0-12.1,0-18.1c0-1,0-2.1-0.3-3.1c-0.2-0.7-0.6-1.2-1.2-1.5
			c-1.4-0.5-2.7,0.1-3.1,1.6c-0.3,0.9-0.3,1.9-0.3,2.8c0,9.6,0,19.2,0,28.8c0,2.7,0,5.4,0,8.2c0,0.9,0.1,1.7,0.4,2.6
			c0.3,0.7,0.7,1.3,1.5,1.4c1.5,0.3,2.5-0.3,2.8-1.9c0.2-0.9,0.2-1.8,0.2-2.8C156,78.3,156,72.3,156,66.3z"/>
		<path class="st0" d="M281.2,79.2c0-13.7,0-27.3,0-41c0-2.9,2-4.4,4.2-4.4c1.3,0.1,2.5,0,3.8,0c1,0,1.5,0.5,1.8,1.5
			c0.2,0.7,0.4,1.5,0.6,2.2c0.1,0.2,0,0.5,0.3,0.5c0.3,0,0.3-0.2,0.4-0.4c1-2.2,2.6-3.8,4.9-4.4c2.1-0.6,4.1-0.4,6.1,0.5
			c1.9,0.9,2.9,2.6,3.3,4.7c0.5,2.1,0.5,4.2,0.5,6.2c0,22.4,0,44.9,0,67.3c0,2.3-1.6,3.9-3.7,4c-1,0-2,0-3.1,0
			c-2.1,0-3.6-1.7-3.7-3.9c0-0.2,0-0.4,0-0.6c0-21,0-42.1,0-63.1c0-0.9,0-1.8-0.2-2.7c-0.2-1.4-0.9-2.1-2-2.1
			c-1.4-0.1-2.3,0.6-2.6,1.9c-0.2,0.7-0.2,1.3-0.2,2c0,24.3,0,48.5,0,72.8c0,0.3,0,0.6,0,0.9c-0.3,1.7-1.4,3-3,3.2
			c-1.4,0.2-2.9,0.2-4.3,0c-1.9-0.3-3-1.9-3.1-3.8c0-0.2,0-0.3,0-0.5C281.2,106.5,281.2,92.8,281.2,79.2z"/>
		<path class="st0" d="M308.8,79.1c0-11.2,0-22.4,0-33.6c0-2.3,0.4-4.6,1.5-6.6c1.6-2.9,4-4.6,7-5.4c3.9-1,7.8-0.9,11.4,1
			c3.6,1.8,5.4,5,5.9,9.1c0.1,0.7,0.1,1.5,0.1,2.2c0,10.3,0,20.5,0,30.8c0,2.4-1.7,4.2-4,4.2c-3.7,0-7.3,0-11,0
			c-0.4,0-0.6,0.1-0.6,0.6c0,10.5,0,21,0,31.4c0,0.7,0,1.4,0.2,2.1c0.2,0.8,0.6,1.3,1.4,1.4c0.6,0.1,1.2,0.1,1.8,0
			c0.7-0.1,1.1-0.5,1.3-1.2c0.3-0.8,0.3-1.7,0.3-2.6c0-3.2,0.1-6.4,0-9.5c-0.1-2.6,1.9-4.2,3.8-4.1c0.9,0,1.9,0,2.8,0
			c2.3,0.1,3.8,1.7,3.8,4.1c0,3.5,0,7.1,0,10.6c0,2.8-0.8,5.4-2.6,7.6c-1.6,2-3.7,3.2-6.2,3.8c-3.6,0.9-7.1,0.8-10.5-0.8
			c-4.1-1.8-6.2-5.3-6.6-9.9c0-0.6,0-1.2,0-1.8C308.8,101.2,308.8,90.2,308.8,79.1z M324.3,58.1c0-4.1,0-8.2,0-12.4
			c0-0.8,0-1.7-0.3-2.5c-0.2-0.7-0.7-1.2-1.4-1.3c-0.6-0.1-1.2-0.1-1.8,0c-0.6,0.1-1.1,0.5-1.3,1.2c-0.2,0.6-0.3,1.3-0.3,2
			c0,8.9,0,17.8,0,26.7c0,0.3,0.1,0.4,0.4,0.4c1.4,0,2.7,0,4.1,0c0.4,0,0.5-0.1,0.5-0.6C324.3,67.1,324.3,62.6,324.3,58.1z"/>
		<path class="st0" d="M346.3,141c-0.8-0.1-1.8,0.1-2.8-0.1c-2.1-0.4-3.4-2.5-3-4.7c0.8-5,1.7-10.1,2.5-15.2c0.2-1.5,0.5-3,0.7-4.5
			c0.2-0.9,0-1.7-0.1-2.5c-0.5-5-1.1-9.9-1.6-14.9c-0.4-4.1-0.9-8.1-1.3-12.2c-0.5-4.7-1-9.3-1.5-14c-0.5-4.4-0.9-8.7-1.4-13.1
			c-0.5-4.4-1-8.7-1.4-13.1c-0.3-2.9-0.7-5.8-0.9-8.7c-0.2-2.4,1.4-4.3,3.7-4.3c1.1,0,2.3-0.1,3.4,0.1c1.8,0.4,2.9,1.7,3,3.6
			c0.3,3.1,0.6,6.1,0.8,9.2c0.3,3,0.5,6.1,0.8,9.1c0.3,3,0.6,6,0.7,9c0.1,2.1,0.2,4.3,0.3,6.4c0.4,8.2,0.5,16.4,0.7,24.7
			c0,1.1,0.1,2.2,0.1,3.3c0,0.2,0,0.4,0.3,0.4c0.3,0,0.3-0.2,0.3-0.4c0.2-4,0.3-8,0.4-11.9c0.1-5.7,0.3-11.4,0.5-17.1
			c0.2-4.4,0.6-8.9,1-13.3c0.4-3.6,0.7-7.3,1-10.9c0.3-2.9,0.5-5.8,0.9-8.7c0.2-1.9,1.4-3.1,3.1-3.4c1.4-0.2,2.7-0.2,4.1,0
			c1.9,0.4,3.2,2.4,3,4.4c-0.3,2.8-0.6,5.6-0.9,8.3c-0.3,3.1-0.6,6.3-1,9.4c-0.3,3.1-0.6,6.1-0.9,9.2c-0.3,3.1-0.6,6.2-0.9,9.3
			c-0.3,2.7-0.6,5.5-0.8,8.2c-0.3,3.1-0.6,6.2-1,9.4c-0.3,2.7-0.6,5.5-0.8,8.2c-0.3,3.1-0.6,6.2-0.9,9.3c-0.2,2-0.4,4-0.6,6
			c-0.4,3.1-0.9,6.1-1.3,9.2c-0.6,4.1-1.2,8.2-1.8,12.4c-0.3,2.3-1.7,3.7-4,3.7C347.9,141,347.2,141,346.3,141z"/>
		<path class="st0" d="M192.2,70.3c0,16.6,0,33.3,0,49.9c0,3-2.2,4.5-4.1,4.4c-0.8-0.1-1.7,0-2.5,0c-2.3,0-3.9-1.7-3.9-4.1
			c0-27.4,0-54.8,0-82.3c0-6,0-12.1,0-18.1c0-2.5,1.6-4.1,3.9-4.1c1.2,0,2.3-0.1,3.5,0.1c1.8,0.4,3,1.9,3,3.8c0,1.3,0,2.7,0,4
			C192.2,39.3,192.2,54.8,192.2,70.3z"/>
		<path class="st0" d="M179.2,79.1c0,13.7,0,27.4,0,41c0,3-2.1,4.5-4.2,4.4c-1.1-0.1-2.2,0.1-3.3-0.1c-1.8-0.4-3-1.9-3-3.8
			c0-27.6,0-55.3,0-82.9c0-1.9,1.2-3.5,3-3.8c1.5-0.3,2.9-0.2,4.4,0c1.9,0.3,3.1,1.9,3.1,3.9c0,3.3,0,6.5,0,9.8
			C179.2,58.1,179.2,68.6,179.2,79.1z"/>
	</g>
</g>
<circle class="st0" cx="173.5" cy="24.6" r="4.7"/>
</svg>
