<svg xmlns="http://www.w3.org/2000/svg" xmlns:xlink="http://www.w3.org/1999/xlink" viewBox="0 0 259.28 353.22"><defs><style>.cls-1{fill:none;}.cls-2{isolation:isolate;}.cls-3{opacity:0.2;}.cls-4{opacity:0;}.cls-5{opacity:0.09;}.cls-6{opacity:0.18;}.cls-7{opacity:0.27;}.cls-8{opacity:0.36;}.cls-9{opacity:0.45;}.cls-10{opacity:0.55;}.cls-11{opacity:0.64;}.cls-12{opacity:0.73;}.cls-13{opacity:0.82;}.cls-14{opacity:0.91;}.cls-15{fill:url(#New_Gradient_Swatch_copy_26);}.cls-16{fill:url(#New_Gradient_Swatch_copy_26-2);}.cls-17,.cls-55,.cls-57,.cls-67,.cls-79,.cls-92,.cls-93,.cls-96,.cls-98{mix-blend-mode:multiply;}.cls-17{fill:url(#linear-gradient);}.cls-100,.cls-101,.cls-102,.cls-103,.cls-104,.cls-18,.cls-21,.cls-46,.cls-54,.cls-70,.cls-71,.cls-72,.cls-73,.cls-74,.cls-81,.cls-95,.cls-97{mix-blend-mode:color-dodge;}.cls-18{fill:url(#Radial_Gradient_1);}.cls-19,.cls-20,.cls-59,.cls-60{mix-blend-mode:overlay;}.cls-19{fill:url(#New_Gradient_Swatch_copy_9);}.cls-20{fill:url(#New_Gradient_Swatch_copy_8);}.cls-22{fill:url(#Radial_Gradient_1-2);}.cls-23{fill:url(#Radial_Gradient_1-3);}.cls-24{fill:url(#Radial_Gradient_1-4);}.cls-25{fill:url(#Radial_Gradient_1-5);}.cls-26{fill:url(#Radial_Gradient_1-6);}.cls-27{fill:url(#Radial_Gradient_1-7);}.cls-28{fill:url(#Radial_Gradient_1-8);}.cls-29{fill:url(#Radial_Gradient_1-9);}.cls-30{fill:url(#Radial_Gradient_1-10);}.cls-31{fill:url(#Radial_Gradient_1-11);}.cls-32{fill:url(#Radial_Gradient_1-12);}.cls-33{fill:url(#Radial_Gradient_1-13);}.cls-34{fill:url(#Radial_Gradient_1-14);}.cls-35{fill:url(#Radial_Gradient_1-15);}.cls-36{fill:url(#Radial_Gradient_1-16);}.cls-37{fill:url(#Radial_Gradient_1-17);}.cls-38{fill:#ebdef3;}.cls-39{fill:url(#New_Gradient_Swatch_copy_8-2);}.cls-40{fill:url(#New_Gradient_Swatch_copy_8-3);}.cls-41{fill:url(#New_Gradient_Swatch_copy_8-4);}.cls-42{fill:url(#Radial_Gradient_1-18);}.cls-43{fill:url(#Radial_Gradient_1-19);}.cls-44{fill:url(#Radial_Gradient_1-20);}.cls-45{fill:url(#linear-gradient-2);}.cls-46{fill:url(#radial-gradient);}.cls-47,.cls-71{opacity:0.6;}.cls-47,.cls-66,.cls-68,.cls-69{mix-blend-mode:screen;}.cls-47{fill:url(#radial-gradient-2);}.cls-48{fill:url(#linear-gradient-3);}.cls-49{fill:url(#linear-gradient-4);}.cls-50{fill:url(#linear-gradient-5);}.cls-51{fill:url(#linear-gradient-6);}.cls-52{fill:url(#linear-gradient-7);}.cls-53{fill:url(#linear-gradient-8);}.cls-54{fill:url(#radial-gradient-3);}.cls-55{fill:#b086cc;}.cls-56{fill:#6559d8;}.cls-57{fill:url(#linear-gradient-9);}.cls-102,.cls-103,.cls-104,.cls-58,.cls-59,.cls-70,.cls-71,.cls-72,.cls-73,.cls-74{fill:#7c1dc9;}.cls-60{fill:#a56ef4;}.cls-61{fill:#bf92de;}.cls-62{fill:url(#New_Gradient_Swatch_copy_35);}.cls-63{fill:url(#New_Gradient_Swatch_copy_35-2);}.cls-64{fill:#fff;}.cls-65{fill:#9122eb;}.cls-66{fill:url(#linear-gradient-10);}.cls-67{fill:#bcbec0;}.cls-68{fill:url(#linear-gradient-11);}.cls-69{fill:url(#linear-gradient-12);}.cls-101,.cls-70{opacity:0.8;}.cls-72{opacity:0.4;}.cls-73{opacity:0.25;}.cls-74{opacity:0.15;}.cls-75{opacity:0.95;}.cls-76{fill:url(#New_Gradient_Swatch_copy_9-2);}.cls-77{fill:url(#linear-gradient-13);}.cls-78{fill:url(#New_Gradient_Swatch_copy_9-3);}.cls-79{fill:url(#Linear_Gradient_1);}.cls-80{fill:url(#New_Gradient_Swatch_copy_9-4);}.cls-81{fill:url(#Radial_Gradient_1-21);}.cls-82{fill:url(#New_Gradient_Swatch_copy_8-5);}.cls-83{fill:url(#New_Gradient_Swatch_copy_8-6);}.cls-84{fill:url(#New_Gradient_Swatch_copy_8-7);}.cls-85{fill:url(#New_Gradient_Swatch_copy_8-8);}.cls-86{fill:url(#New_Gradient_Swatch_copy_8-9);}.cls-87{fill:url(#New_Gradient_Swatch_copy_8-10);}.cls-88{clip-path:url(#clip-path);}.cls-89{fill:url(#linear-gradient-14);}.cls-90{fill:url(#New_Gradient_Swatch_copy_37);}.cls-91{fill:url(#New_Gradient_Swatch_copy_37-2);}.cls-92{fill:url(#linear-gradient-15);}.cls-94{fill:#fdd65b;}.cls-95{fill:url(#radial-gradient-4);}.cls-96{fill:url(#linear-gradient-16);}.cls-97{fill:url(#Radial_Gradient_1-22);}.cls-98{fill:url(#linear-gradient-17);}.cls-99{fill:url(#New_Gradient_Swatch_copy_37-3);}.cls-100,.cls-103{opacity:0.5;}.cls-100{fill:url(#radial-gradient-5);}.cls-102{opacity:0.3;}</style><linearGradient id="New_Gradient_Swatch_copy_26" x1="424.99" y1="194.94" x2="438.49" y2="117.57" gradientUnits="userSpaceOnUse"><stop offset="0.03" stop-color="#7c1dc9"/><stop offset="0.21" stop-color="#6e41d2"/><stop offset="0.62" stop-color="#4c9be8"/><stop offset="1" stop-color="#2af6ff"/></linearGradient><linearGradient id="New_Gradient_Swatch_copy_26-2" x1="768.88" y1="2081.07" x2="665.06" y2="2017.21" gradientTransform="matrix(0.87, 0.5, 0.5, 1.44, -1214.39, -3163.87)" xlink:href="#New_Gradient_Swatch_copy_26"/><linearGradient id="linear-gradient" x1="439.9" y1="153.03" x2="523.55" y2="152.76" gradientUnits="userSpaceOnUse"><stop offset="0" stop-color="#fff"/><stop offset="0.04" stop-color="#f7f7f7"/><stop offset="0.99" stop-color="#45108a"/></linearGradient><radialGradient id="Radial_Gradient_1" cx="431.44" cy="151.43" r="64.32" gradientUnits="userSpaceOnUse"><stop offset="0" stop-color="#fff"/><stop offset="1"/></radialGradient><linearGradient id="New_Gradient_Swatch_copy_9" x1="9.91" y1="2071.15" x2="27.15" y2="2071.15" gradientTransform="matrix(0.5, 0.87, -0.58, 1, 1665.59, -1882.04)" gradientUnits="userSpaceOnUse"><stop offset="0.04" stop-color="#9f19ab"/><stop offset="0.24" stop-color="#ae25b1"/><stop offset="0.65" stop-color="#d744bf"/><stop offset="1" stop-color="#ff63ce"/></linearGradient><linearGradient id="New_Gradient_Swatch_copy_8" x1="20.78" y1="2071.15" x2="38.02" y2="2071.15" gradientTransform="matrix(0.87, 0.5, 0, 1.15, 451.73, -2202.13)" gradientUnits="userSpaceOnUse"><stop offset="0.04" stop-color="#ffa98c"/><stop offset="0.32" stop-color="#ffb892"/><stop offset="0.86" stop-color="#fee1a3"/><stop offset="1" stop-color="#feeca8"/></linearGradient><radialGradient id="Radial_Gradient_1-2" cx="385.43" cy="131.47" r="3.46" xlink:href="#Radial_Gradient_1"/><radialGradient id="Radial_Gradient_1-3" cx="390.67" cy="134.05" r="3.33" xlink:href="#Radial_Gradient_1"/><radialGradient id="Radial_Gradient_1-4" cx="395.92" cy="137.48" r="3.6" xlink:href="#Radial_Gradient_1"/><radialGradient id="Radial_Gradient_1-5" cx="401.16" cy="140.55" r="3.46" xlink:href="#Radial_Gradient_1"/><radialGradient id="Radial_Gradient_1-6" cx="411.65" cy="146.16" r="3.33" xlink:href="#Radial_Gradient_1"/><radialGradient id="Radial_Gradient_1-7" cx="416.9" cy="149.59" r="3.6" xlink:href="#Radial_Gradient_1"/><radialGradient id="Radial_Gradient_1-8" cx="422.14" cy="152.53" r="3.54" xlink:href="#Radial_Gradient_1"/><radialGradient id="Radial_Gradient_1-9" cx="427.39" cy="155.65" r="3.48" xlink:href="#Radial_Gradient_1"/><radialGradient id="Radial_Gradient_1-10" cx="437.88" cy="161.3" r="3.33" xlink:href="#Radial_Gradient_1"/><radialGradient id="Radial_Gradient_1-11" cx="443.12" cy="164.33" r="3.33" xlink:href="#Radial_Gradient_1"/><radialGradient id="Radial_Gradient_1-12" cx="448.37" cy="167.36" r="3.33" xlink:href="#Radial_Gradient_1"/><radialGradient id="Radial_Gradient_1-13" cx="453.61" cy="170.39" r="3.33" xlink:href="#Radial_Gradient_1"/><radialGradient id="Radial_Gradient_1-14" cx="464.1" cy="176.84" r="3.48" xlink:href="#Radial_Gradient_1"/><radialGradient id="Radial_Gradient_1-15" cx="469.34" cy="179.87" r="3.48" xlink:href="#Radial_Gradient_1"/><radialGradient id="Radial_Gradient_1-16" cx="474.59" cy="182.9" r="3.48" xlink:href="#Radial_Gradient_1"/><radialGradient id="Radial_Gradient_1-17" cx="479.83" cy="185.93" r="3.48" xlink:href="#Radial_Gradient_1"/><linearGradient id="New_Gradient_Swatch_copy_8-2" x1="-59.42" y1="2050.31" x2="-80.37" y2="2033.19" gradientTransform="matrix(0.87, 0.5, 0, 1.15, 77.97, -2265.11)" xlink:href="#New_Gradient_Swatch_copy_8"/><linearGradient id="New_Gradient_Swatch_copy_8-3" x1="-60.25" y1="2046.43" x2="-79.37" y2="2030.81" xlink:href="#New_Gradient_Swatch_copy_8"/><linearGradient id="New_Gradient_Swatch_copy_8-4" x1="-60.45" y1="2052.63" x2="-79.51" y2="2037.06" xlink:href="#New_Gradient_Swatch_copy_8"/><radialGradient id="Radial_Gradient_1-18" cx="391.18" cy="124.44" r="6.53" xlink:href="#Radial_Gradient_1"/><radialGradient id="Radial_Gradient_1-19" cx="17.42" cy="57.52" r="6.87" xlink:href="#Radial_Gradient_1"/><radialGradient id="Radial_Gradient_1-20" cx="391.56" cy="116.47" r="6.35" xlink:href="#Radial_Gradient_1"/><linearGradient id="linear-gradient-2" x1="437.83" y1="73.43" x2="549.39" y2="266.65" gradientUnits="userSpaceOnUse"><stop offset="0.06" stop-color="#200041"/><stop offset="0.26" stop-color="#210243"/><stop offset="0.36" stop-color="#25084b"/><stop offset="0.43" stop-color="#2c1358"/><stop offset="0.47" stop-color="#311b61"/><stop offset="0.48" stop-color="#351f65"/><stop offset="0.5" stop-color="#422c73"/><stop offset="0.51" stop-color="#584188"/><stop offset="0.52" stop-color="#765fa7"/><stop offset="0.53" stop-color="#8770b8"/><stop offset="0.54" stop-color="#7e67ae"/><stop offset="0.56" stop-color="#5c468d"/><stop offset="0.59" stop-color="#442e75"/><stop offset="0.61" stop-color="#362066"/><stop offset="0.63" stop-color="#311b61"/><stop offset="0.67" stop-color="#2a1155"/><stop offset="0.75" stop-color="#230446"/><stop offset="0.81" stop-color="#200041"/><stop offset="1" stop-color="#200041"/></linearGradient><radialGradient id="radial-gradient" cx="611.2" cy="151.93" r="209.35" gradientUnits="userSpaceOnUse"><stop offset="0" stop-color="#711f56"/><stop offset="0.16" stop-color="#6c1e52"/><stop offset="0.36" stop-color="#5c1946"/><stop offset="0.58" stop-color="#431233"/><stop offset="0.82" stop-color="#200918"/><stop offset="1"/></radialGradient><radialGradient id="radial-gradient-2" cx="576.17" cy="136.97" r="123.34" gradientUnits="userSpaceOnUse"><stop offset="0" stop-color="#af8afc"/><stop offset="1" stop-color="#10054d"/></radialGradient><linearGradient id="linear-gradient-3" x1="586.12" y1="251.61" x2="245.16" y2="144.88" gradientUnits="userSpaceOnUse"><stop offset="0.19" stop-color="#3d065f"/><stop offset="0.93" stop-color="#3d065f"/></linearGradient><linearGradient id="linear-gradient-4" x1="590.56" y1="383.57" x2="417.42" y2="17.71" gradientUnits="userSpaceOnUse"><stop offset="0" stop-color="#311b61"/><stop offset="0.2" stop-color="#290f52"/><stop offset="0.49" stop-color="#200041"/><stop offset="1" stop-color="#0f001f"/></linearGradient><linearGradient id="linear-gradient-5" x1="463.66" y1="230.3" x2="572.39" y2="230.3" xlink:href="#linear-gradient-4"/><linearGradient id="linear-gradient-6" x1="451.37" y1="103.19" x2="616.81" y2="418.66" gradientUnits="userSpaceOnUse"><stop offset="0.01" stop-color="#9f19ab"/><stop offset="0.43" stop-color="#5f27bd"/><stop offset="0.9" stop-color="#3d065f"/></linearGradient><linearGradient id="linear-gradient-7" x1="-76.16" y1="10362.15" x2="-56.7" y2="10362.15" gradientTransform="matrix(-0.5, 1.44, -0.87, 0.5, 9523.54, -4890.48)" xlink:href="#linear-gradient-4"/><linearGradient id="linear-gradient-8" x1="588.13" y1="194.93" x2="574.72" y2="194.35" gradientUnits="userSpaceOnUse"><stop offset="0" stop-color="#3d065f"/><stop offset="1" stop-color="#5f27bd"/></linearGradient><radialGradient id="radial-gradient-3" cx="581.39" cy="189.2" r="7.88" xlink:href="#radial-gradient"/><linearGradient id="linear-gradient-9" x1="475.13" y1="189.67" x2="443.88" y2="189.67" xlink:href="#linear-gradient"/><linearGradient id="New_Gradient_Swatch_copy_35" x1="109.64" y1="2122.45" x2="95.89" y2="2109.07" gradientTransform="matrix(0.87, 0.5, 0, 1.15, 451.73, -2202.13)" gradientUnits="userSpaceOnUse"><stop offset="0" stop-color="#9f79c8"/><stop offset="0.14" stop-color="#a580cb"/><stop offset="0.33" stop-color="#b492d3"/><stop offset="0.55" stop-color="#cdb0e1"/><stop offset="0.58" stop-color="#d1b4e3"/><stop offset="0.76" stop-color="#dbc4e9"/><stop offset="1" stop-color="#ebdef3"/></linearGradient><linearGradient id="New_Gradient_Swatch_copy_35-2" x1="522.99" y1="249.4" x2="513.49" y2="231.52" gradientTransform="matrix(1, 0, 0, 1, 0, 0)" xlink:href="#New_Gradient_Swatch_copy_35"/><linearGradient id="linear-gradient-10" x1="517.82" y1="241.27" x2="504.07" y2="240.93" gradientUnits="userSpaceOnUse"><stop offset="0" stop-color="#7c1dc9"/><stop offset="1"/></linearGradient><linearGradient id="linear-gradient-11" x1="485.42" y1="316.1" x2="473.05" y2="341.1" xlink:href="#linear-gradient-10"/><linearGradient id="linear-gradient-12" x1="147.69" y1="271.96" x2="135.32" y2="296.96" xlink:href="#linear-gradient-10"/><linearGradient id="New_Gradient_Swatch_copy_9-2" x1="3228.06" y1="289.98" x2="3221.76" y2="300.9" gradientTransform="translate(-3063.35 -62.98)" xlink:href="#New_Gradient_Swatch_copy_9"/><linearGradient id="linear-gradient-13" x1="3228.14" y1="317.35" x2="3219.88" y2="331.66" gradientTransform="translate(-3063.35 -62.98)" gradientUnits="userSpaceOnUse"><stop offset="0" stop-color="#5513ab"/><stop offset="1" stop-color="#be3bff"/></linearGradient><linearGradient id="New_Gradient_Swatch_copy_9-3" x1="3270.96" y1="344.13" x2="3315" y2="340.75" gradientTransform="translate(-3063.35 -62.98)" xlink:href="#New_Gradient_Swatch_copy_9"/><linearGradient id="Linear_Gradient_1" x1="213.66" y1="281.23" x2="206.14" y2="280.56" xlink:href="#Radial_Gradient_1"/><linearGradient id="New_Gradient_Swatch_copy_9-4" x1="167.61" y1="341.68" x2="130.61" y2="82.18" gradientTransform="matrix(1, 0, 0, 1, 0, 0)" xlink:href="#New_Gradient_Swatch_copy_9"/><radialGradient id="Radial_Gradient_1-21" cx="3224.21" cy="314.02" r="55.93" gradientTransform="translate(-3063.35 -62.98)" xlink:href="#Radial_Gradient_1"/><linearGradient id="New_Gradient_Swatch_copy_8-5" x1="576.77" y1="348.48" x2="536.52" y2="292.73" gradientTransform="matrix(1, 0, 0, 1, 0, 0)" xlink:href="#New_Gradient_Swatch_copy_8"/><linearGradient id="New_Gradient_Swatch_copy_8-6" x1="562.52" y1="358.77" x2="522.27" y2="303.02" gradientTransform="matrix(1, 0, 0, 1, 0, 0)" xlink:href="#New_Gradient_Swatch_copy_8"/><linearGradient id="New_Gradient_Swatch_copy_8-7" x1="564.34" y1="357.45" x2="524.09" y2="301.7" gradientTransform="matrix(1, 0, 0, 1, 0, 0)" xlink:href="#New_Gradient_Swatch_copy_8"/><linearGradient id="New_Gradient_Swatch_copy_8-8" x1="567.41" y1="355.23" x2="527.16" y2="299.48" gradientTransform="matrix(1, 0, 0, 1, 0, 0)" xlink:href="#New_Gradient_Swatch_copy_8"/><linearGradient id="New_Gradient_Swatch_copy_8-9" x1="569.9" y1="353.44" x2="529.65" y2="297.69" gradientTransform="matrix(1, 0, 0, 1, 0, 0)" xlink:href="#New_Gradient_Swatch_copy_8"/><linearGradient id="New_Gradient_Swatch_copy_8-10" x1="572.39" y1="351.64" x2="532.14" y2="295.89" gradientTransform="matrix(1, 0, 0, 1, 0, 0)" xlink:href="#New_Gradient_Swatch_copy_8"/><clipPath id="clip-path" transform="translate(-373.76 -62.98)"><polygon class="cls-1" points="582.36 353.73 599.32 367.49 612.2 354.57 603.28 333.76 583.52 326.99 582.42 334.37 582.36 353.73"/></clipPath><linearGradient id="linear-gradient-14" x1="2873.3" y1="332.72" x2="2887.43" y2="358.5" gradientTransform="translate(-2284.93)" gradientUnits="userSpaceOnUse"><stop offset="0" stop-color="#ffbb96"/><stop offset="0.23" stop-color="#fffbc9"/><stop offset="0.54" stop-color="#f9b673"/><stop offset="0.64" stop-color="#f9b876"/><stop offset="0.72" stop-color="#fabe81"/><stop offset="0.81" stop-color="#fcc993"/><stop offset="0.86" stop-color="#fed2a3"/><stop offset="0.97" stop-color="#ffc28c"/></linearGradient><linearGradient id="New_Gradient_Swatch_copy_37" x1="2871.6" y1="349.19" x2="2904.62" y2="339.31" gradientTransform="translate(-1716.22 -1404.2) rotate(30.31)" gradientUnits="userSpaceOnUse"><stop offset="0.04" stop-color="#ffba78"/><stop offset="0.4" stop-color="#ffc987"/><stop offset="1" stop-color="#feeca8"/></linearGradient><linearGradient id="New_Gradient_Swatch_copy_37-2" x1="4610.64" y1="352.44" x2="4643.56" y2="332.6" gradientTransform="matrix(-1, 0, 0, 1, 5210, 0)" xlink:href="#New_Gradient_Swatch_copy_37"/><linearGradient id="linear-gradient-15" x1="2874.98" y1="357.49" x2="2876.72" y2="341.92" xlink:href="#linear-gradient-14"/><radialGradient id="radial-gradient-4" cx="7177" cy="963.81" r="13.86" gradientTransform="matrix(0.28, -0.25, 0.44, 0.49, -1848.15, 1668.94)" gradientUnits="userSpaceOnUse"><stop offset="0" stop-color="#f49587"/><stop offset="0.12" stop-color="#bd7368"/><stop offset="0.24" stop-color="#8b554d"/><stop offset="0.36" stop-color="#603b35"/><stop offset="0.48" stop-color="#3e2622"/><stop offset="0.61" stop-color="#231513"/><stop offset="0.74" stop-color="#0f0908"/><stop offset="0.86" stop-color="#040202"/><stop offset="1"/></radialGradient><linearGradient id="linear-gradient-16" x1="2876.3" y1="331.07" x2="2890.34" y2="356.69" xlink:href="#linear-gradient-14"/><radialGradient id="Radial_Gradient_1-22" cx="2879.91" cy="342.75" r="11.3" gradientTransform="translate(-2284.93)" xlink:href="#Radial_Gradient_1"/><linearGradient id="linear-gradient-17" x1="587.18" y1="347.71" x2="597.99" y2="347.71" gradientTransform="matrix(1, 0, 0, 1, 0, 0)" xlink:href="#linear-gradient-14"/><linearGradient id="New_Gradient_Swatch_copy_37-3" x1="605.24" y1="371.92" x2="574.48" y2="316.66" gradientTransform="matrix(1, 0, 0, 1, 0, 0)" xlink:href="#New_Gradient_Swatch_copy_37"/><radialGradient id="radial-gradient-5" cx="595.94" cy="345.37" r="6.2" xlink:href="#Radial_Gradient_1"/></defs><title>celu1</title><g class="cls-2"><g id="Layer_1" data-name="Layer 1"><g class="cls-3"><path class="cls-4" d="M576.31,404.85a18,18,0,0,1-9-2.17l-54.6-31.07-54.6-31.07a9.51,9.51,0,0,1-5.16-8.22c0-3.65,2.27-7.05,6.21-9.33l35.73-20.1a22.15,22.15,0,0,1,10.92-2.78,18,18,0,0,1,9,2.17l54.6,31.07L624,364.42a9.52,9.52,0,0,1,5.16,8.22c0,3.65-2.26,7.05-6.21,9.33l-35.73,20.11A22.25,22.25,0,0,1,576.31,404.85Z" transform="translate(-373.76 -62.98)"/><path class="cls-5" d="M460.14,323.76l9.69-5.4c.4-.23,18.58-10.15,18.92-9.95l6.25-3.06c2.82-1.63,7-2.17,10.54-2.17a18.45,18.45,0,0,1,8.68,2.26l43.72,24.9,9.32,5.31,53,30.22a11.26,11.26,0,0,1,4.12,4,8.46,8.46,0,0,1,1.09,3.82c.1,3.51-2,6.83-5.93,9.08l-9.7,5.4c-.39.23-18.57,10.15-18.91,9.95l-6.25,3.06c-2.82,1.63-7,2.17-10.55,2.17a18.51,18.51,0,0,1-8.68-2.26l-43.71-24.9-9.33-5.32-53-30.21a11.34,11.34,0,0,1-4.12-4,8.45,8.45,0,0,1-1.08-3.82C454.1,329.33,456.26,326,460.14,323.76Z" transform="translate(-373.76 -62.98)"/><path class="cls-6" d="M461.11,324.53l9.43-5.21c.79-.46,17.81-9.41,18.49-9l6.06-2.5c2.54-1.46,7-1.56,10.17-1.56a19.16,19.16,0,0,1,8.37,2.36l42.43,24.2,9.05,5.16,51.48,29.35a12.2,12.2,0,0,1,4.07,3.82,8.36,8.36,0,0,1,1.18,3.63c.21,3.37-1.83,6.62-5.65,8.82l-9.43,5.21c-.79.46-17.81,9.41-18.49,9l-6.07,2.5c-2.53,1.46-6.94,1.56-10.16,1.56a19.12,19.12,0,0,1-8.37-2.36l-42.43-24.19-9-5.16L460.7,340.8a12.26,12.26,0,0,1-4.06-3.82,8.23,8.23,0,0,1-1.18-3.63C455.25,330,457.29,326.73,461.11,324.53Z" transform="translate(-373.76 -62.98)"/><path class="cls-7" d="M462.08,325.3l9.16-5c1.19-.68,17.05-8.67,18.07-8.08l5.88-1.94c2.26-1.3,6.92-.95,9.79-.95a20.1,20.1,0,0,1,8.06,2.45l41.14,23.49,8.78,5,49.92,28.49a13.43,13.43,0,0,1,4,3.62,8,8,0,0,1,1.28,3.45c.31,3.23-1.61,6.4-5.36,8.56l-9.17,5c-1.19.68-17,8.67-18.07,8.08l-5.88,1.94c-2.25,1.31-6.92,1-9.79,1a20.1,20.1,0,0,1-8.06-2.46L520.7,374.44l-8.78-5L462,340.93a13.43,13.43,0,0,1-4-3.62,8,8,0,0,1-1.28-3.45C456.4,330.64,458.33,327.46,462.08,325.3Z" transform="translate(-373.76 -62.98)"/><path class="cls-8" d="M463,326.07l8.91-4.82c1.58-.91,16.28-7.94,17.64-7.15l5.7-1.38c2-1.14,6.9-.35,9.41-.35,2.18,0,6.18,1.65,7.74,2.55l39.87,22.78,8.5,4.86,48.36,27.63a15.32,15.32,0,0,1,4,3.43,8.24,8.24,0,0,1,1.38,3.26c.41,3.09-1.41,6.18-5.09,8.31L600.51,390c-1.58.91-16.27,7.94-17.64,7.15l-5.69,1.38c-2,1.14-6.91.34-9.42.34-2.18,0-6.18-1.64-7.74-2.54l-39.86-22.78-8.51-4.86-48.36-27.64a15.27,15.27,0,0,1-4-3.42,8.14,8.14,0,0,1-1.37-3.26C457.54,331.29,459.36,328.2,463,326.07Z" transform="translate(-373.76 -62.98)"/><path class="cls-9" d="M464,326.84l8.65-4.63c2-1.14,15.51-7.2,17.22-6.21l5.5-.83c1.69-1,6.89.27,9,.27,1.87,0,6.09,1.87,7.43,2.64l38.58,22.07,8.23,4.71,46.8,26.78a17.39,17.39,0,0,1,3.9,3.23,8,8,0,0,1,1.48,3.07c.52,2.94-1.19,6-4.81,8.05l-8.64,4.63c-2,1.14-15.51,7.2-17.22,6.21l-5.51.83c-1.69,1-6.88-.27-9-.27-1.87,0-6.1-1.87-7.44-2.64l-38.58-22.07L511.39,368,464.58,341.2a17.7,17.7,0,0,1-3.9-3.24,8.29,8.29,0,0,1-1.48-3.07C458.68,332,460.39,328.93,464,326.84Z" transform="translate(-373.76 -62.98)"/><path class="cls-10" d="M465,327.61l8.38-4.44c2.37-1.36,14.75-6.46,16.8-5.28l5.32-.26c1.41-.81,6.87.87,8.66.87,1.56,0,6,2.1,7.12,2.74l37.29,21.36,8,4.56,45.24,25.92a20.74,20.74,0,0,1,3.85,3,8.47,8.47,0,0,1,1.58,2.88c.63,2.8-1,5.75-4.53,7.8l-8.39,4.43c-2.36,1.37-14.74,6.46-16.79,5.28l-5.32.26c-1.41.82-6.87-.87-8.66-.87-1.56,0-6-2.09-7.12-2.74l-37.3-21.36-8-4.55-45.25-25.92a21.09,21.09,0,0,1-3.84-3,8.51,8.51,0,0,1-1.58-2.89C459.82,332.6,461.43,329.66,465,327.61Z" transform="translate(-373.76 -62.98)"/><path class="cls-11" d="M466,328.38l8.12-4.24c2.76-1.6,14-5.73,16.37-4.35l5.13.3c1.13-.65,6.85,1.48,8.29,1.48,1.24,0,5.91,2.32,6.81,2.83l36,20.66,7.67,4.4L598,374.52a27.44,27.44,0,0,1,3.8,2.84,8.86,8.86,0,0,1,1.67,2.7c.74,2.66-.76,5.53-4.25,7.54l-8.12,4.24c-2.76,1.6-14,5.73-16.37,4.35l-5.13-.3c-1.13.65-6.85-1.48-8.29-1.48-1.24,0-5.91-2.32-6.81-2.83l-36-20.66-7.67-4.4-43.69-25.06a26.71,26.71,0,0,1-3.8-2.85,8.7,8.7,0,0,1-1.67-2.69C461,333.26,462.46,330.39,466,328.38Z" transform="translate(-373.76 -62.98)"/><path class="cls-12" d="M466.91,329.14l7.87-4c3.15-1.82,13.21-5,15.94-3.41l4.95.85c.84-.48,6.83,2.1,7.91,2.1s5.82,2.53,6.49,2.92l34.73,19.95,7.4,4.25L594.33,376a24.68,24.68,0,0,1,3.74,2.65,5.59,5.59,0,0,1,1.77,2.51c.85,2.52-.54,5.31-4,7.29l-7.86,4c-3.16,1.83-13.21,5-15.95,3.41l-4.94-.85c-.85.49-6.84-2.09-7.91-2.09s-5.83-2.54-6.5-2.93L518,370l-7.4-4.25-42.13-24.2a24,24,0,0,1-3.74-2.65,5.67,5.67,0,0,1-1.77-2.51C462.1,333.91,463.49,331.12,466.91,329.14Z" transform="translate(-373.76 -62.98)"/><path class="cls-13" d="M467.88,329.91l7.6-3.85c3.55-2.05,12.44-4.25,15.52-2.47l4.76,1.41c.57-.32,6.82,2.7,7.54,2.7s5.73,2.76,6.18,3L542.92,350l7.13,4.1,40.58,23.35a32.66,32.66,0,0,1,3.68,2.45,5.62,5.62,0,0,1,1.87,2.32c1,2.38-.33,5.1-3.69,7l-7.6,3.85c-3.55,2.05-12.44,4.26-15.52,2.48l-4.76-1.42c-.56.33-6.81-2.69-7.53-2.69s-5.74-2.77-6.19-3l-33.44-19.24-7.13-4.1-40.57-23.34a35.63,35.63,0,0,1-3.68-2.45,5.49,5.49,0,0,1-1.87-2.33C463.24,334.57,464.53,331.85,467.88,329.91Z" transform="translate(-373.76 -62.98)"/><path class="cls-14" d="M468.85,330.68l7.34-3.65c3.95-2.28,11.67-3.52,15.09-1.55l4.58,2c.28-.16,6.8,3.31,7.15,3.31s5.66,3,5.88,3.11l32.16,18.53,6.85,3.95,39,22.49c.17.1,3.54,2.1,3.62,2.26a5.47,5.47,0,0,1,2,2.13c1.08,2.24-.11,4.88-3.4,6.78l-7.34,3.65c-3.95,2.28-11.68,3.52-15.09,1.55l-4.58-2c-.28.16-6.8-3.31-7.16-3.31s-5.65-3-5.87-3.11l-32.16-18.54-6.85-3.95-39-22.48c-.17-.1-3.54-2.1-3.62-2.26a5.4,5.4,0,0,1-2-2.13C464.37,335.22,465.56,332.58,468.85,330.68Z" transform="translate(-373.76 -62.98)"/><path d="M564,394.89l-47.61-27.48-47.61-27.49c-3.76-2.17-3.29-6,1.06-8.47l7.07-3.46c4.35-2.51,10.91-2.78,14.67-.61l47.61,27.49,47.61,27.48c3.76,2.17,3.29,6-1.06,8.47l-7.07,3.46C574.3,396.79,567.74,397.06,564,394.89Z" transform="translate(-373.76 -62.98)"/></g><path class="cls-15" d="M483.42,223.14,381.5,164.3c-3.58-2.07-6.49-7.62-6.49-12.4V86c0-4.78,2.91-7,6.49-4.91L483.42,140c3.58,2.07,6.49,7.62,6.49,12.4v65.87C489.91,223,487,225.21,483.42,223.14Z" transform="translate(-373.76 -62.98)"/><path class="cls-16" d="M482.17,223.52,380.25,164.67c-3.58-2.07-6.49-7.62-6.49-12.4,0,0,2.91-72.85,6.49-70.78l101.92,58.85c3.58,2.07,6.49,7.62,6.49,12.4v65.87C488.66,223.39,485.75,225.59,482.17,223.52Z" transform="translate(-373.76 -62.98)"/><path class="cls-17" d="M484.36,224.78,380.87,165c-3.64-2.1-3.64-86.57,0-84.47l103.49,59.75c3.64,2.11,6.59,7.74,6.59,12.6V219.8C491,224.65,488,226.88,484.36,224.78Z" transform="translate(-373.76 -62.98)"/><path class="cls-18" d="M482.17,140.34,380.25,81.49c-2.73-1.57-5.06-.67-6,2,1.08-2.17,3.25-2.83,5.77-1.37l101.92,58.84c3.58,2.07,6.49,7.62,6.49,12.4v65.87a8.61,8.61,0,0,1-.47,2.95,7.91,7.91,0,0,0,.72-3.53V152.74C488.66,148,485.75,142.4,482.17,140.34Z" transform="translate(-373.76 -62.98)"/><ellipse class="cls-19" cx="467.78" cy="198.7" rx="6.08" ry="10.52" transform="translate(-410.09 200.26) rotate(-30.31)"/><path class="cls-20" d="M484.66,208.44c0,4.73-3.35,6.64-7.47,4.26a16.46,16.46,0,0,1-7.46-12.88c0-4.73,3.34-6.64,7.46-4.26A16.47,16.47,0,0,1,484.66,208.44Z" transform="translate(-373.76 -62.98)"/><g class="cls-21"><path class="cls-22" d="M385.08,130.72l1.34.77a1.41,1.41,0,0,1,.58.62,1.74,1.74,0,0,1,.23,1v2.13a.88.88,0,0,1-.18.68c-.18.19-.37.12-.63,0l-1.62-.93a1.71,1.71,0,0,1-.48-.46l-.27-.33a1.21,1.21,0,0,1-.42-.8c0-.26.16-.4.35-.29a.9.9,0,0,1,.23.21l.22.26a2.26,2.26,0,0,0,.39.42l1.68,1v-2.38l-2.15-1.24v-4.38l2.51,1.45a.8.8,0,0,1,.37.71c0,.36-.18.4-.37.29l-1.78-1Z" transform="translate(-373.76 -62.98)"/><path class="cls-23" d="M389.6,131c0,.22-.13.42-.36.29a.93.93,0,0,1-.37-.71V130c0-.22.14-.42.37-.29l3.23,1.87v2.89c0,.35,0,.39-.19.52l-1,.61c-.19.12-.21.14-.21.48v1.94c0,.32-.1.44-.36.29a.75.75,0,0,1-.37-.71v-2.41c0-.32,0-.35.19-.46l1-.61c.24-.15.22-.15.22-.59v-1.37Z" transform="translate(-373.76 -62.98)"/><path class="cls-24" d="M394.85,139.74l2.5,1.45a.8.8,0,0,1,.37.71c0,.36-.18.39-.37.29l-3.23-1.87v-3.25c0-.75.28-1,.82-.65L397,137.6v-2.39l-2.51-1.44a.79.79,0,0,1-.36-.71c0-.36.17-.4.36-.29l2.42,1.4a1.32,1.32,0,0,1,.59.62,1.8,1.8,0,0,1,.23,1v2c0,.36,0,.61-.23.76s-.35.07-.59-.07l-2-1.18Z" transform="translate(-373.76 -62.98)"/><path class="cls-25" d="M400.81,139.81l1.34.77a1.34,1.34,0,0,1,.59.61,1.81,1.81,0,0,1,.22,1v2.14a.9.9,0,0,1-.17.67c-.18.2-.37.13-.64,0l-1.61-.94a1.81,1.81,0,0,1-.48-.45l-.28-.33a1.24,1.24,0,0,1-.42-.8c0-.26.16-.41.35-.3a.82.82,0,0,1,.24.22l.22.25a2.25,2.25,0,0,0,.38.42l1.68,1v-2.39l-2.14-1.24V136l2.51,1.45a.79.79,0,0,1,.36.71c0,.36-.17.4-.36.29l-1.79-1Z" transform="translate(-373.76 -62.98)"/><path class="cls-26" d="M410.58,143.06c0,.22-.13.42-.36.29a.89.89,0,0,1-.37-.71v-.5c0-.22.13-.42.37-.29l3.23,1.87v2.89c0,.35,0,.4-.2.52l-1,.62c-.19.12-.21.13-.21.48v1.93c0,.32-.1.44-.36.29a.73.73,0,0,1-.37-.71v-2.4c0-.33,0-.36.19-.47l1-.61c.24-.15.22-.15.22-.59V144.3Z" transform="translate(-373.76 -62.98)"/><path class="cls-27" d="M415.83,151.85l2.5,1.45a.8.8,0,0,1,.37.71c0,.36-.18.4-.37.29l-3.23-1.87v-3.25c0-.75.27-1,.82-.65l2.05,1.18v-2.38l-2.51-1.45a.79.79,0,0,1-.36-.71c0-.36.17-.4.36-.29l2.42,1.4a1.37,1.37,0,0,1,.59.62,1.94,1.94,0,0,1,.23,1v2c0,.36,0,.62-.23.76s-.35.07-.59-.06l-2.05-1.19Z" transform="translate(-373.76 -62.98)"/><path class="cls-28" d="M420.71,148.91a.8.8,0,0,1-.37-.71c0-.36.18-.4.37-.29l2.5,1.45a1.71,1.71,0,0,1,.73,1.41v1.92c0,.4-.06.65-.28.8a2.18,2.18,0,0,1,.28,1.13v1.92c0,.57-.31.81-.73.57l-2.5-1.44a.8.8,0,0,1-.37-.71c0-.36.18-.4.37-.29l2.5,1.45v-1.66c0-.56-.16-.82-.36-.94l-1.43-.82a.79.79,0,0,1-.36-.71c0-.36.17-.4.36-.29l1.43.83c.2.11.36,0,.36-.52v-1.66Z" transform="translate(-373.76 -62.98)"/><path class="cls-29" d="M428.46,152.38a1.8,1.8,0,0,1,.73,1.42v5.77c0,.55-.32.81-.73.57l-2.14-1.23a1.73,1.73,0,0,1-.73-1.42v-5.76c0-.55.33-.81.73-.58Zm0,6.77v-5.77l-2.14-1.23v5.76Z" transform="translate(-373.76 -62.98)"/><path class="cls-30" d="M436.81,158.2c0,.22-.14.42-.37.29a.9.9,0,0,1-.36-.71v-.5c0-.22.13-.42.36-.29l3.23,1.87v2.89c0,.35,0,.4-.19.52l-1,.62c-.19.12-.21.13-.21.48v1.93c0,.32-.1.44-.36.29a.74.74,0,0,1-.36-.71v-2.4c0-.33,0-.36.19-.47l1-.61c.24-.15.23-.15.23-.59v-1.37Z" transform="translate(-373.76 -62.98)"/><path class="cls-31" d="M442.05,161.23c0,.22-.13.42-.36.29a.9.9,0,0,1-.37-.71v-.5c0-.22.13-.42.37-.29l3.23,1.87v2.89c0,.35,0,.39-.2.52l-1,.61c-.19.12-.2.14-.2.48v1.94c0,.32-.1.44-.36.29a.73.73,0,0,1-.37-.71V165.5c0-.32,0-.35.19-.46l1-.61c.24-.15.22-.15.22-.59v-1.37Z" transform="translate(-373.76 -62.98)"/><path class="cls-32" d="M447.29,164.26c0,.22-.13.42-.36.29a.92.92,0,0,1-.36-.71v-.5c0-.22.13-.42.36-.29l3.23,1.87v2.89c0,.35,0,.39-.19.51l-1,.62c-.19.12-.21.13-.21.48v1.94c0,.32-.1.44-.36.29a.75.75,0,0,1-.36-.71v-2.41c0-.33,0-.35.19-.47l1-.6c.24-.15.23-.15.23-.59v-1.38Z" transform="translate(-373.76 -62.98)"/><path class="cls-33" d="M452.54,167.29c0,.22-.13.42-.36.28a.88.88,0,0,1-.37-.7v-.5c0-.22.13-.43.37-.29l3.23,1.87v2.89c0,.35,0,.39-.2.51l-1,.62c-.19.12-.2.13-.2.48v1.94c0,.31-.1.43-.37.28a.74.74,0,0,1-.36-.71v-2.4c0-.33,0-.35.19-.47l1-.6c.24-.15.22-.15.22-.59v-1.38Z" transform="translate(-373.76 -62.98)"/><path class="cls-34" d="M465.17,173.58a1.78,1.78,0,0,1,.73,1.42v5.76c0,.56-.31.82-.73.58L463,180.1a1.72,1.72,0,0,1-.73-1.41v-5.77c0-.55.33-.81.73-.58Zm0,6.76v-5.76L463,173.34v5.77Z" transform="translate(-373.76 -62.98)"/><path class="cls-35" d="M470.42,176.61a1.78,1.78,0,0,1,.72,1.42v5.76c0,.56-.31.82-.72.58l-2.15-1.24a1.75,1.75,0,0,1-.72-1.42V176c0-.55.32-.81.72-.58Zm0,6.76v-5.76l-2.15-1.24v5.76Z" transform="translate(-373.76 -62.98)"/><path class="cls-36" d="M475.66,179.64a1.78,1.78,0,0,1,.73,1.41v5.77c0,.56-.32.81-.73.58l-2.14-1.24a1.73,1.73,0,0,1-.73-1.42V179c0-.55.33-.81.73-.58Zm0,6.76v-5.77l-2.14-1.23v5.76Z" transform="translate(-373.76 -62.98)"/><path class="cls-37" d="M480.9,182.66a1.77,1.77,0,0,1,.73,1.42v5.77c0,.55-.31.81-.73.57l-2.14-1.23a1.76,1.76,0,0,1-.73-1.42V182c0-.55.33-.81.73-.58Zm0,6.77v-5.77l-2.14-1.23v5.76Z" transform="translate(-373.76 -62.98)"/></g><path class="cls-38" d="M384.69,130.75l1.34.77a1.41,1.41,0,0,1,.58.62,1.74,1.74,0,0,1,.23,1v2.13a.88.88,0,0,1-.18.68c-.18.19-.37.12-.63,0l-1.62-.93a1.71,1.71,0,0,1-.48-.46l-.28-.33a1.25,1.25,0,0,1-.41-.8c0-.26.16-.4.35-.29a.75.75,0,0,1,.23.21l.22.26a2.26,2.26,0,0,0,.39.42l1.68,1v-2.38L384,131.33V127l2.51,1.45a.8.8,0,0,1,.37.71c0,.36-.18.4-.37.29l-1.78-1Z" transform="translate(-373.76 -62.98)"/><path class="cls-38" d="M389.21,131c0,.22-.13.42-.36.29a.9.9,0,0,1-.37-.71v-.5c0-.22.13-.42.37-.29l3.23,1.87v2.89c0,.35,0,.39-.2.51l-1,.62c-.18.12-.2.13-.2.48v1.94c0,.32-.1.44-.36.29a.74.74,0,0,1-.37-.71v-2.41c0-.32,0-.35.19-.46l1-.61c.24-.15.22-.15.22-.59v-1.37Z" transform="translate(-373.76 -62.98)"/><path class="cls-38" d="M394.46,139.77l2.5,1.45a.8.8,0,0,1,.37.71c0,.35-.18.39-.37.28l-3.23-1.86V137.1c0-.75.27-1,.82-.66l2.05,1.19v-2.39l-2.51-1.44a.79.79,0,0,1-.36-.71c0-.36.17-.4.36-.29l2.42,1.4a1.32,1.32,0,0,1,.59.62,1.89,1.89,0,0,1,.23,1v2c0,.36,0,.61-.23.75s-.35.08-.59-.06l-2.05-1.18Z" transform="translate(-373.76 -62.98)"/><path class="cls-38" d="M400.42,139.83l1.34.78a1.34,1.34,0,0,1,.59.61,1.81,1.81,0,0,1,.22,1v2.14a.91.91,0,0,1-.17.67c-.19.2-.38.13-.64,0l-1.61-.94a2,2,0,0,1-.49-.45l-.27-.33a1.24,1.24,0,0,1-.42-.8c0-.26.16-.41.35-.3a.82.82,0,0,1,.24.22l.21.25a2.28,2.28,0,0,0,.39.42l1.68,1v-2.38l-2.15-1.24V136l2.52,1.45a.79.79,0,0,1,.36.71c0,.36-.17.4-.36.29l-1.79-1Z" transform="translate(-373.76 -62.98)"/><path class="cls-38" d="M410.19,143.09c0,.22-.13.42-.36.29a.9.9,0,0,1-.37-.71v-.5c0-.22.13-.42.37-.29l3.23,1.87v2.89c0,.35,0,.4-.2.52l-1,.61c-.19.12-.2.14-.2.49v1.93c0,.32-.1.44-.36.29a.73.73,0,0,1-.37-.71v-2.4c0-.33,0-.36.19-.47l1-.61c.24-.15.22-.15.22-.59v-1.37Z" transform="translate(-373.76 -62.98)"/><path class="cls-38" d="M415.44,151.88l2.5,1.45a.79.79,0,0,1,.36.71c0,.36-.17.4-.36.29l-3.23-1.87v-3.25c0-.75.27-1,.82-.65l2.05,1.18v-2.38l-2.51-1.45a.79.79,0,0,1-.36-.71c0-.36.17-.4.36-.29l2.42,1.4a1.37,1.37,0,0,1,.59.62,1.9,1.9,0,0,1,.22,1V150c0,.36,0,.62-.22.76s-.35.07-.59-.07l-2.05-1.18Z" transform="translate(-373.76 -62.98)"/><path class="cls-38" d="M420.32,148.94a.8.8,0,0,1-.37-.71c0-.36.18-.4.37-.29l2.5,1.45a1.71,1.71,0,0,1,.73,1.41v1.92c0,.4-.06.65-.28.8a2.18,2.18,0,0,1,.28,1.13v1.92c0,.57-.31.81-.73.57l-2.5-1.44A.8.8,0,0,1,420,155c0-.36.18-.4.37-.29l2.5,1.45v-1.66c0-.56-.16-.82-.36-.94l-1.43-.82a.79.79,0,0,1-.36-.71c0-.36.17-.4.36-.29l1.43.83c.2.11.36,0,.36-.52v-1.66Z" transform="translate(-373.76 -62.98)"/><path class="cls-38" d="M428.07,152.41a1.79,1.79,0,0,1,.72,1.42v5.77c0,.55-.31.81-.72.57l-2.15-1.23a1.75,1.75,0,0,1-.72-1.42v-5.77c0-.54.32-.8.72-.57Zm0,6.77v-5.77l-2.15-1.23v5.76Z" transform="translate(-373.76 -62.98)"/><path class="cls-38" d="M436.41,158.23c0,.22-.13.42-.36.29a.92.92,0,0,1-.36-.71v-.5c0-.22.13-.42.36-.29l3.23,1.87v2.89c0,.35,0,.4-.19.52l-1,.61c-.19.12-.21.14-.21.49v1.93c0,.32-.1.44-.36.29a.75.75,0,0,1-.37-.71v-2.4c0-.33,0-.36.19-.47l1-.61c.24-.15.23-.15.23-.59v-1.37Z" transform="translate(-373.76 -62.98)"/><path class="cls-38" d="M441.66,161.26c0,.22-.13.42-.37.29a.92.92,0,0,1-.36-.71v-.5c0-.22.13-.42.36-.29l3.24,1.87v2.89c0,.35,0,.39-.2.51l-1,.62c-.19.12-.2.13-.2.48v1.94c0,.32-.1.44-.37.29a.75.75,0,0,1-.36-.71v-2.41c0-.32,0-.35.19-.46l1-.61c.24-.15.23-.15.23-.59V162.5Z" transform="translate(-373.76 -62.98)"/><path class="cls-38" d="M446.9,164.29c0,.22-.13.42-.36.29a.93.93,0,0,1-.37-.71v-.5c0-.22.14-.43.37-.29l3.23,1.87v2.89c0,.35,0,.39-.19.51l-1,.62c-.19.12-.21.13-.21.48v1.94c0,.32-.1.44-.36.28a.74.74,0,0,1-.37-.7v-2.41c0-.33,0-.35.19-.47l1-.6c.24-.15.22-.15.22-.59v-1.38Z" transform="translate(-373.76 -62.98)"/><path class="cls-38" d="M452.15,167.32c0,.21-.13.42-.37.28a.9.9,0,0,1-.36-.71v-.49c0-.22.13-.43.36-.29L455,168v2.9c0,.35,0,.39-.2.51l-1,.62c-.19.12-.2.13-.2.48v1.93c0,.32-.1.44-.37.29a.74.74,0,0,1-.36-.71v-2.4c0-.33,0-.35.19-.47l1-.6c.24-.16.23-.15.23-.59v-1.38Z" transform="translate(-373.76 -62.98)"/><path class="cls-38" d="M464.78,173.61a1.78,1.78,0,0,1,.73,1.42v5.76c0,.56-.32.82-.73.58l-2.14-1.24a1.73,1.73,0,0,1-.73-1.42V173c0-.55.33-.81.73-.58Zm0,6.76v-5.76l-2.14-1.24v5.77Z" transform="translate(-373.76 -62.98)"/><path class="cls-38" d="M470,176.64a1.78,1.78,0,0,1,.73,1.42v5.76c0,.56-.31.82-.73.58l-2.14-1.24a1.76,1.76,0,0,1-.73-1.42V176c0-.55.33-.81.73-.58Zm0,6.76v-5.76l-2.14-1.24v5.76Z" transform="translate(-373.76 -62.98)"/><path class="cls-38" d="M475.27,179.67a1.78,1.78,0,0,1,.73,1.41v5.77c0,.56-.32.81-.73.57l-2.14-1.23a1.73,1.73,0,0,1-.73-1.42V179c0-.55.33-.81.73-.58Zm0,6.76v-5.77l-2.14-1.23v5.76Z" transform="translate(-373.76 -62.98)"/><path class="cls-38" d="M480.51,182.69a1.8,1.8,0,0,1,.73,1.42v5.77c0,.55-.31.81-.73.57l-2.14-1.23a1.76,1.76,0,0,1-.73-1.42V182c0-.54.33-.8.73-.57Zm0,6.77v-5.77l-2.14-1.23v5.76Z" transform="translate(-373.76 -62.98)"/><polygon class="cls-39" points="24.88 63.73 24.88 59.92 9.95 51.3 9.95 55.11 24.88 63.73"/><path class="cls-40" d="M398.64,122v-.21a6.92,6.92,0,0,0-3.13-5.41l-8.66-5c-1.73-1-3.14-.2-3.14,1.78v.21Z" transform="translate(-373.76 -62.98)"/><path class="cls-41" d="M383.71,119v.12a7,7,0,0,0,3.14,5.42l8.66,5c1.73,1,3.13.2,3.13-1.79v-.12Z" transform="translate(-373.76 -62.98)"/><g class="cls-21"><path class="cls-42" d="M383.71,119.12c0,.15,0,.29,0,.44l14.39,8.31V128a2.26,2.26,0,0,1-.77,1.9c.77-.21,1.27-1,1.27-2.15v-.12L383.71,119Z" transform="translate(-373.76 -62.98)"/><polygon class="cls-43" points="9.95 51.84 24.38 60.17 24.38 63.44 24.88 63.73 24.88 59.92 9.95 51.3 9.95 51.84"/><path class="cls-44" d="M395.51,116.37l-8.66-5a2.09,2.09,0,0,0-2.36-.11,2.39,2.39,0,0,1,1.86.36l8.66,5a7,7,0,0,1,3.11,5.07l.52.3v-.21A6.92,6.92,0,0,0,395.51,116.37Z" transform="translate(-373.76 -62.98)"/></g><path class="cls-38" d="M385,151.91v-2.64l.45.26v2.69c0,.93-.35,1.19-1.06.78a2.34,2.34,0,0,1-.48-.37l.06-.39a1.85,1.85,0,0,0,.39.3q.32.18.48.06C385,152.51,385,152.29,385,151.91Z" transform="translate(-373.76 -62.98)"/><path class="cls-38" d="M387.3,151.64a2.34,2.34,0,0,1,.87.92,2.58,2.58,0,0,1,.33,1.26c0,.5-.12.8-.37.92a.93.93,0,0,1-.88-.11,2.37,2.37,0,0,1-.86-.91,2.52,2.52,0,0,1-.34-1.27c0-.47.12-.77.35-.91A.89.89,0,0,1,387.3,151.64Zm.55,1.06a1.36,1.36,0,0,0-.57-.67c-.24-.14-.44-.14-.57,0a1,1,0,0,0-.19.67,2.13,2.13,0,0,0,.21.92,1.42,1.42,0,0,0,.54.63.45.45,0,0,0,.55,0,.88.88,0,0,0,.22-.67A2.36,2.36,0,0,0,387.85,152.7Z" transform="translate(-373.76 -62.98)"/><path class="cls-38" d="M389.08,155.62v-4.23l.46.26v1.81h0a.4.4,0,0,1,.33-.18.83.83,0,0,1,.46.12l.22.16a1.93,1.93,0,0,1,.24.25,2,2,0,0,1,.21.35,2.05,2.05,0,0,1,.15.44,2.35,2.35,0,0,1,.06.54v1.71l-.46-.26v-1.66a1.58,1.58,0,0,0-.14-.69,1,1,0,0,0-.44-.49.43.43,0,0,0-.38-.07.33.33,0,0,0-.23.23.67.67,0,0,0,0,.23v1.74Z" transform="translate(-373.76 -62.98)"/><path class="cls-38" d="M392,157.28v-2.1c0-.31,0-.57,0-.79l.41.23,0,.49h0a.44.44,0,0,1,.33-.2.86.86,0,0,1,.51.14,1.79,1.79,0,0,1,.28.22,2.7,2.7,0,0,1,.29.35,1.93,1.93,0,0,1,.23.52,2.69,2.69,0,0,1,.08.65v1.72l-.45-.27v-1.66a1.78,1.78,0,0,0-.14-.7,1.07,1.07,0,0,0-.45-.49.43.43,0,0,0-.37-.06.38.38,0,0,0-.24.25.61.61,0,0,0,0,.22v1.74Z" transform="translate(-373.76 -62.98)"/><path class="cls-38" d="M395.79,159.29l.12-.36a2.59,2.59,0,0,0,.8.72.65.65,0,0,0,.54.13c.13-.05.19-.18.19-.39a1.1,1.1,0,0,0-.15-.54,3,3,0,0,0-.51-.63,2.59,2.59,0,0,1-.92-1.68c0-.32.1-.52.31-.6a1,1,0,0,1,.82.16,2.77,2.77,0,0,1,.77.64l-.12.35a2.56,2.56,0,0,0-.66-.57c-.22-.12-.39-.16-.5-.1a.33.33,0,0,0-.16.32,1.08,1.08,0,0,0,.15.54,4.69,4.69,0,0,0,.54.64,3.63,3.63,0,0,1,.67.87,1.63,1.63,0,0,1,.22.82.66.66,0,0,1-.31.65,1,1,0,0,1-.91-.19,3.9,3.9,0,0,1-.5-.36A2.42,2.42,0,0,1,395.79,159.29Z" transform="translate(-373.76 -62.98)"/><path class="cls-38" d="M398.51,161.06V159c0-.21,0-.47,0-.8l.4.24,0,.48h0c.18-.25.45-.28.8-.07a1.35,1.35,0,0,1,.43.4,1.62,1.62,0,0,1,.27.58h0a.47.47,0,0,1,.29-.21.69.69,0,0,1,.55.11,1.79,1.79,0,0,1,.28.22,2,2,0,0,1,.26.34,1.7,1.7,0,0,1,.21.51,2.71,2.71,0,0,1,.08.66v1.7l-.45-.26v-1.63a1.8,1.8,0,0,0-.13-.73,1,1,0,0,0-.41-.47.42.42,0,0,0-.33-.06.35.35,0,0,0-.22.21,1,1,0,0,0,0,.25v1.78l-.45-.26v-1.73a1.54,1.54,0,0,0-.13-.65,1,1,0,0,0-.39-.44.44.44,0,0,0-.36-.05.41.41,0,0,0-.21.25.63.63,0,0,0,0,.23v1.74Z" transform="translate(-373.76 -62.98)"/><path class="cls-38" d="M402.86,159.65c.06,0,.12,0,.21,0a.58.58,0,0,1,.2.21.57.57,0,0,1,.08.28.19.19,0,0,1-.08.18s-.12,0-.21,0a.43.43,0,0,1-.2-.2.6.6,0,0,1-.08-.28A.19.19,0,0,1,402.86,159.65Zm.44,4.17-.46-.26v-2.88l.46.26Z" transform="translate(-373.76 -62.98)"/><path class="cls-38" d="M404.16,160.9l.44.1v.7l.66.37v.4l-.66-.37v1.55a.8.8,0,0,0,.35.76,1.14,1.14,0,0,0,.26.12l0,.41a1.19,1.19,0,0,1-.4-.17,1.33,1.33,0,0,1-.5-.5,1.93,1.93,0,0,1-.17-.86v-1.57l-.39-.23v-.4l.39.23Z" transform="translate(-373.76 -62.98)"/><path class="cls-38" d="M405.77,165.26V161l.46.27v1.8h0a.41.41,0,0,1,.33-.19.77.77,0,0,1,.46.13,1.6,1.6,0,0,1,.23.16,1.94,1.94,0,0,1,.44.59,2.26,2.26,0,0,1,.15.44,2.35,2.35,0,0,1,.06.54v1.72l-.45-.26v-1.66a1.78,1.78,0,0,0-.14-.7,1.12,1.12,0,0,0-.45-.49.49.49,0,0,0-.38-.07.39.39,0,0,0-.23.24.67.67,0,0,0,0,.23v1.74Z" transform="translate(-373.76 -62.98)"/><path class="cls-38" d="M425.62,176.71v-3.38h0l-.59,0-.09-.45.74,0,.39.23V177Z" transform="translate(-373.76 -62.98)"/><path class="cls-38" d="M428.28,178.25v-3.38h0l-.58,0-.09-.45.74,0,.38.22v3.88Z" transform="translate(-373.76 -62.98)"/><path class="cls-38" d="M430.06,179.51l-.34-.2,1.44-3.49.36.21Z" transform="translate(-373.76 -62.98)"/><path class="cls-38" d="M433.89,181.49l-2.15-1.24v-.33l.36-.19a4.81,4.81,0,0,0,1-.62.93.93,0,0,0,.27-.68,1.39,1.39,0,0,0-.15-.63,1.31,1.31,0,0,0-.51-.51.85.85,0,0,0-.72-.09l-.14-.45a1.08,1.08,0,0,1,.95.16,2.06,2.06,0,0,1,1,1.72,1.09,1.09,0,0,1-.28.79,3.46,3.46,0,0,1-.88.62l-.27.13h0l1.51.87Z" transform="translate(-373.76 -62.98)"/><path class="cls-38" d="M434.68,178.54a.62.62,0,0,1,.85,0,2,2,0,0,1,.83,1,4.21,4.21,0,0,1,.29,1.61,2.09,2.09,0,0,1-.31,1.34c-.2.24-.49.25-.86,0a2,2,0,0,1-.81-1,4.18,4.18,0,0,1-.32-1.65A1.87,1.87,0,0,1,434.68,178.54Zm.82.35a.32.32,0,0,0-.49.13,2.19,2.19,0,0,0-.19,1.08,3.92,3.92,0,0,0,.18,1.27,1.24,1.24,0,0,0,.5.71c.23.13.4.09.51-.13a2.41,2.41,0,0,0,.18-1.09,4.13,4.13,0,0,0-.17-1.26A1.2,1.2,0,0,0,435.5,178.89Z" transform="translate(-373.76 -62.98)"/><path class="cls-45" d="M568.88,388.07l-85.4-49.3C473.84,333.2,466,318.28,466,305.44V78c0-6.54-5.37-8-2.11-10.33.12-.09,7.62-3.49,7.76-3.55,3.5-1.34,7.25-1.94,11.8.69l85.4,49.31c9.63,5.56,17.44,20.48,17.44,33.33V374.89c0,6.82-2.2,11.69-5.71,13.91-.21.14-9.25,4.43-9.48,4.51C568,394.35,573.09,390.51,568.88,388.07Z" transform="translate(-373.76 -62.98)"/><path class="cls-46" d="M568.09,114.38l-85.4-49.31C478.14,62.45,563.37,116,563.37,116c9.64,5.57,17.45,20.49,17.45,33.33,0,0,4.72,232.69,4.72,225.87V147.71C585.54,134.86,577.73,119.94,568.09,114.38Z" transform="translate(-373.76 -62.98)"/><path class="cls-47" d="M562.25,391.11,476.84,341.8c-9.63-5.56-17.44-20.48-17.44-33.33V81c0-12.84,7.81-18.75,17.44-13.19l85.41,49.31c9.63,5.56,17.44,20.48,17.44,33.33V377.92C579.69,390.77,571.88,396.67,562.25,391.11Z" transform="translate(-373.76 -62.98)"/><path class="cls-48" d="M560.73,391.93l-85.41-49.31c-9.63-5.56-17.44-20.48-17.44-33.33V81.85c0-12.84,7.81-18.75,17.44-13.19L560.73,118c9.63,5.56,17.44,20.49,17.44,33.33V378.74C578.17,391.59,570.36,397.49,560.73,391.93Z" transform="translate(-373.76 -62.98)"/><path class="cls-49" d="M460.26,310.81V83.08c0-11.26,6.84-16.43,15.29-11.56l84.95,49.05c8.45,4.88,15.29,18,15.29,29.22V377.51c0,11.26-6.84,16.43-15.29,11.56L475.55,340C467.1,335.15,460.26,322.07,460.26,310.81Z" transform="translate(-373.76 -62.98)"/><path class="cls-50" d="M463.66,312.19V85.62c0-9.42,5.73-13.75,12.8-9.67l83.13,48c7.07,4.08,12.8,15,12.8,24.45V375c0,9.42-5.73,13.76-12.8,9.68l-83.13-48C469.39,332.56,463.66,321.62,463.66,312.19Z" transform="translate(-373.76 -62.98)"/><path class="cls-51" d="M477.42,78.45c-6.66-3.84-12.06-.76-12.06,6.88V314.45c0,7.64,5.4,17,12.06,20.8l81.21,46.89c6.66,3.85,12.06.77,12.06-6.88V146.15c0-7.65-5.4-17-12.06-20.81Z" transform="translate(-373.76 -62.98)"/><path class="cls-52" d="M580.46,203.93V188.57a6.39,6.39,0,0,1,2.67-5.09h0c1.47-.85,2.66.05,2.66,2v15.36a6.38,6.38,0,0,1-2.66,5.09h0C581.66,206.79,580.46,205.89,580.46,203.93Z" transform="translate(-373.76 -62.98)"/><path class="cls-53" d="M582.07,205.69c-.76,0-1-.95-1-1.76V188.57a5.84,5.84,0,0,1,2.38-4.59,1.58,1.58,0,0,1,.77-.25c.76,0,1,1,1,1.76v15.36a5.84,5.84,0,0,1-2.38,4.59A1.58,1.58,0,0,1,582.07,205.69Z" transform="translate(-373.76 -62.98)"/><path class="cls-54" d="M581.83,204.32V189a5.87,5.87,0,0,1,2.37-4.6,1.75,1.75,0,0,1,.69-.23.83.83,0,0,0-.7-.41,1.58,1.58,0,0,0-.77.25,5.84,5.84,0,0,0-2.38,4.59v15.36c0,.81.27,1.75,1,1.75h.09A2.48,2.48,0,0,1,581.83,204.32Z" transform="translate(-373.76 -62.98)"/><polygon class="cls-55" points="91.59 161.19 196.93 222.01 196.93 126.15 91.59 65.33 91.59 161.19"/><polygon class="cls-55" points="91.59 191.19 196.93 252.01 196.93 250.65 91.59 189.84 91.59 191.19"/><polygon class="cls-55" points="91.59 226.69 196.93 287.51 196.93 286.15 91.59 225.34 91.59 226.69"/><polygon class="cls-55" points="91.59 252.31 196.93 313.13 196.93 311.78 91.59 250.96 91.59 252.31"/><path class="cls-56" d="M526.6,173.3,465.45,138v67.41l61.15,35.3c2.9,1.68,5.26-.11,5.26-4V183.35C531.86,179.48,529.5,175,526.6,173.3Z" transform="translate(-373.76 -62.98)"/><path class="cls-57" d="M526.6,173.3,465.45,138v67.41l61.15,35.3c2.9,1.68,5.26-.11,5.26-4V183.35C531.86,179.48,529.5,175,526.6,173.3Z" transform="translate(-373.76 -62.98)"/><path class="cls-58" d="M549.12,185.83c-2.91-1.68-5.26.1-5.26,4v53.37c0,3.88,2.35,8.38,5.26,10.06l21.44,12.38V198.21Z" transform="translate(-373.76 -62.98)"/><path class="cls-59" d="M521,224.09c0,3.83-2.71,5.38-6,3.45a13.34,13.34,0,0,1-6.05-10.44c0-3.83,2.71-5.38,6.05-3.45A13.34,13.34,0,0,1,521,224.09Z" transform="translate(-373.76 -62.98)"/><path class="cls-60" d="M528.61,228.49c0,3.84-2.7,5.38-6.05,3.45a13.33,13.33,0,0,1-6-10.43c0-3.84,2.71-5.38,6-3.45A13.31,13.31,0,0,1,528.61,228.49Z" transform="translate(-373.76 -62.98)"/><path class="cls-38" d="M552.71,225.75l1.09.62a1.09,1.09,0,0,1,.47.5,1.4,1.4,0,0,1,.18.79v1.73a.71.71,0,0,1-.14.55c-.15.16-.3.1-.51,0l-1.31-.76a1.34,1.34,0,0,1-.39-.37l-.23-.26a1,1,0,0,1-.33-.65c0-.21.13-.33.28-.24a.73.73,0,0,1,.19.17l.18.21a1.46,1.46,0,0,0,.31.34l1.36.79v-1.93l-1.74-1v-3.54l2,1.17a.65.65,0,0,1,.29.58c0,.29-.14.32-.29.23l-1.45-.84Z" transform="translate(-373.76 -62.98)"/><path class="cls-38" d="M556.38,225.93c0,.18-.11.34-.3.23a.7.7,0,0,1-.29-.57v-.4c0-.18.1-.35.29-.24l2.62,1.52v2.34c0,.28,0,.32-.16.42l-.82.5c-.16.09-.17.1-.17.39v1.56c0,.26-.08.36-.29.24a.6.6,0,0,1-.3-.58V229.4c0-.27,0-.29.15-.38l.82-.5c.19-.12.18-.12.18-.47v-1.12Z" transform="translate(-373.76 -62.98)"/><path class="cls-38" d="M560.63,233.06l2,1.17a.64.64,0,0,1,.29.57c0,.29-.14.32-.29.24L560,233.52v-2.63c0-.61.22-.79.66-.53l1.66,1v-1.93l-2-1.18a.63.63,0,0,1-.29-.57c0-.29.14-.32.29-.23l2,1.13a1.11,1.11,0,0,1,.48.5,1.48,1.48,0,0,1,.18.82v1.66c0,.29,0,.5-.18.61s-.28.07-.48,0l-1.66-1Z" transform="translate(-373.76 -62.98)"/><path class="cls-38" d="M565.46,233.11l1.09.62a1.15,1.15,0,0,1,.47.5,1.41,1.41,0,0,1,.18.8v1.72a.71.71,0,0,1-.14.55c-.15.16-.3.1-.51,0l-1.31-.76a1.22,1.22,0,0,1-.39-.37l-.23-.26a1,1,0,0,1-.33-.65c0-.21.13-.33.28-.24a1,1,0,0,1,.19.17l.18.21a1.72,1.72,0,0,0,.31.34l1.36.79v-1.93l-1.74-1V230l2,1.17a.66.66,0,0,1,.29.58c0,.29-.14.32-.29.23l-1.45-.83Z" transform="translate(-373.76 -62.98)"/><path class="cls-38" d="M468.27,175.54c0,.17-.11.34-.3.23a.76.76,0,0,1-.29-.58v-.4c0-.18.11-.34.29-.23l2.62,1.51v2.34c0,.29,0,.32-.15.42l-.83.5c-.15.1-.17.11-.17.39v1.57c0,.26-.08.35-.29.23a.6.6,0,0,1-.3-.57V179c0-.27,0-.29.16-.38l.81-.49c.2-.12.18-.12.18-.48v-1.11Z" transform="translate(-373.76 -62.98)"/><path class="cls-38" d="M472.52,182.66l2,1.17a.66.66,0,0,1,.29.58c0,.29-.14.32-.29.23l-2.62-1.51v-2.64c0-.6.22-.78.67-.52l1.65.95V179l-2-1.17a.65.65,0,0,1-.29-.58c0-.29.14-.32.29-.23l2,1.13a1.11,1.11,0,0,1,.48.5,1.51,1.51,0,0,1,.18.83v1.66c0,.29,0,.49-.18.61s-.28.06-.48-.05l-1.66-1Z" transform="translate(-373.76 -62.98)"/><path class="cls-38" d="M476.47,180.27a.64.64,0,0,1-.29-.57c0-.29.14-.32.29-.24l2,1.18a1.39,1.39,0,0,1,.6,1.15v1.55c0,.32-.05.53-.24.65a1.67,1.67,0,0,1,.24.92v1.55c0,.46-.26.66-.6.46l-2-1.17a.64.64,0,0,1-.29-.57c0-.29.14-.33.29-.24l2,1.18v-1.35c0-.45-.12-.66-.29-.76l-1.16-.66a.66.66,0,0,1-.29-.58c0-.29.14-.32.29-.23l1.16.67c.17.09.29,0,.29-.42v-1.34Z" transform="translate(-373.76 -62.98)"/><path class="cls-38" d="M482.76,183.09a1.47,1.47,0,0,1,.59,1.15v4.67c0,.45-.26.66-.59.47l-1.74-1a1.41,1.41,0,0,1-.59-1.15v-4.67c0-.45.27-.66.59-.47Zm0,5.48V183.9l-1.74-1v4.67Z" transform="translate(-373.76 -62.98)"/><path class="cls-38" d="M489.52,187.8c0,.18-.11.35-.3.24a.76.76,0,0,1-.29-.58v-.4c0-.18.11-.34.29-.23l2.63,1.51v2.34c0,.29,0,.32-.16.42l-.83.5c-.15.1-.17.11-.17.39v1.57c0,.26-.08.35-.29.23a.6.6,0,0,1-.3-.57v-1.95c0-.27,0-.29.16-.38l.81-.49c.2-.12.19-.12.19-.48v-1.11Z" transform="translate(-373.76 -62.98)"/><path class="cls-38" d="M493.77,190.26c0,.18-.11.34-.3.23a.75.75,0,0,1-.29-.57v-.41c0-.17.11-.34.29-.23l2.63,1.51v2.35c0,.28,0,.31-.16.41l-.83.5c-.15.1-.17.11-.17.39V196c0,.26-.08.36-.29.23a.6.6,0,0,1-.3-.57v-1.95c0-.26,0-.28.16-.38l.81-.49c.2-.12.19-.12.19-.47v-1.12Z" transform="translate(-373.76 -62.98)"/><path class="cls-38" d="M498,192.71c0,.18-.11.34-.3.24a.76.76,0,0,1-.29-.58V192c0-.18.11-.35.29-.24l2.63,1.52v2.34c0,.28,0,.32-.16.42l-.83.5c-.15.1-.17.1-.17.39v1.57c0,.25-.08.35-.29.23a.61.61,0,0,1-.3-.58v-1.94c0-.27,0-.29.16-.38l.81-.49c.2-.13.19-.13.19-.48v-1.12Z" transform="translate(-373.76 -62.98)"/><path class="cls-38" d="M502.27,195.17c0,.17-.11.34-.3.23a.76.76,0,0,1-.29-.57v-.41c0-.18.11-.34.29-.23l2.63,1.51V198c0,.29,0,.32-.16.42l-.83.5c-.15.1-.17.11-.17.39v1.57c0,.26-.08.35-.29.23a.6.6,0,0,1-.3-.57v-2c0-.27,0-.29.16-.38l.81-.49c.2-.12.19-.12.19-.48v-1.11Z" transform="translate(-373.76 -62.98)"/><path class="cls-38" d="M512.51,200.27a1.44,1.44,0,0,1,.59,1.15v4.67c0,.45-.26.66-.59.46l-1.74-1a1.38,1.38,0,0,1-.59-1.15v-4.67c0-.44.27-.65.59-.46Zm0,5.48v-4.67l-1.74-1v4.67Z" transform="translate(-373.76 -62.98)"/><path class="cls-38" d="M516.76,202.72a1.47,1.47,0,0,1,.59,1.15v4.67c0,.45-.26.66-.59.47L515,208a1.41,1.41,0,0,1-.59-1.15v-4.67c0-.45.27-.66.59-.47Zm0,5.48v-4.67l-1.74-1v4.67Z" transform="translate(-373.76 -62.98)"/><path class="cls-38" d="M521,205.17a1.47,1.47,0,0,1,.59,1.15V211c0,.46-.26.67-.59.47l-1.74-1a1.4,1.4,0,0,1-.59-1.15v-4.67c0-.44.27-.65.59-.47Zm0,5.48V206l-1.74-1v4.67Z" transform="translate(-373.76 -62.98)"/><path class="cls-38" d="M525.26,207.63a1.45,1.45,0,0,1,.59,1.15v4.67c0,.45-.26.66-.59.47l-1.74-1a1.38,1.38,0,0,1-.59-1.15v-4.67c0-.44.27-.65.59-.46Zm0,5.48v-4.67l-1.74-1v4.68Z" transform="translate(-373.76 -62.98)"/><polygon class="cls-61" points="190.26 159.49 190.26 156.41 178.16 149.42 178.16 152.51 190.26 159.49"/><path class="cls-61" d="M564,218.65v-.17a5.64,5.64,0,0,0-2.54-4.39l-7-4.05c-1.4-.81-2.54-.16-2.54,1.45v.17Z" transform="translate(-373.76 -62.98)"/><path class="cls-61" d="M551.92,216.22v.1a5.62,5.62,0,0,0,2.54,4.39l7,4c1.4.81,2.54.16,2.54-1.45v-.1Z" transform="translate(-373.76 -62.98)"/><path class="cls-38" d="M551.26,242v-2.15l.37.22v2.17c0,.76-.29,1-.86.64a1.54,1.54,0,0,1-.39-.3l0-.32a1.18,1.18,0,0,0,.31.24c.18.1.31.12.39.05S551.26,242.3,551.26,242Z" transform="translate(-373.76 -62.98)"/><path class="cls-38" d="M553.09,241.78a1.88,1.88,0,0,1,.71.74,2.1,2.1,0,0,1,.27,1q0,.6-.3.75a.75.75,0,0,1-.71-.09,1.86,1.86,0,0,1-.7-.74,2,2,0,0,1-.28-1c0-.38.1-.62.29-.73A.67.67,0,0,1,553.09,241.78Zm.45.85a1.12,1.12,0,0,0-.46-.54c-.2-.11-.35-.11-.46,0a.79.79,0,0,0-.16.55,1.78,1.78,0,0,0,.17.74,1.24,1.24,0,0,0,.44.51.36.36,0,0,0,.44,0,.71.71,0,0,0,.18-.55A1.85,1.85,0,0,0,553.54,242.63Z" transform="translate(-373.76 -62.98)"/><path class="cls-38" d="M554.54,245v-3.43l.37.22v1.46h0a.34.34,0,0,1,.26-.15.7.7,0,0,1,.38.1l.18.13a2.09,2.09,0,0,1,.19.21,1.78,1.78,0,0,1,.17.27,1.52,1.52,0,0,1,.12.36,1.61,1.61,0,0,1,0,.44V246l-.37-.21v-1.35a1.47,1.47,0,0,0-.11-.56.93.93,0,0,0-.36-.4.4.4,0,0,0-.31,0,.28.28,0,0,0-.19.19.74.74,0,0,0,0,.18v1.41Z" transform="translate(-373.76 -62.98)"/><path class="cls-38" d="M556.87,246.35v-1.71c0-.25,0-.46,0-.64l.32.19,0,.4h0a.34.34,0,0,1,.27-.15.65.65,0,0,1,.41.11.9.9,0,0,1,.23.18,1.72,1.72,0,0,1,.23.28,1.36,1.36,0,0,1,.19.42,2.19,2.19,0,0,1,.07.53v1.39l-.37-.21v-1.35a1.32,1.32,0,0,0-.12-.57.78.78,0,0,0-.35-.39.37.37,0,0,0-.31-.06.34.34,0,0,0-.19.2.5.5,0,0,0,0,.19v1.4Z" transform="translate(-373.76 -62.98)"/><path class="cls-38" d="M560,248l.1-.3a2.25,2.25,0,0,0,.65.59.53.53,0,0,0,.44.1c.1,0,.15-.15.15-.31a.88.88,0,0,0-.12-.44,2.33,2.33,0,0,0-.41-.51,2.07,2.07,0,0,1-.75-1.36c0-.26.08-.42.25-.49a.81.81,0,0,1,.67.13,2.14,2.14,0,0,1,.62.52l-.1.29a1.87,1.87,0,0,0-.54-.47c-.17-.1-.31-.13-.4-.08a.26.26,0,0,0-.13.26.77.77,0,0,0,.13.43,3.11,3.11,0,0,0,.43.53,3.15,3.15,0,0,1,.55.7,1.31,1.31,0,0,1,.17.67.52.52,0,0,1-.25.52.86.86,0,0,1-.74-.15,2.61,2.61,0,0,1-.4-.3A2.43,2.43,0,0,1,560,248Z" transform="translate(-373.76 -62.98)"/><path class="cls-38" d="M562.18,249.41V247.7c0-.16,0-.37,0-.64l.32.19,0,.39h0c.15-.2.36-.22.65-.06a1.21,1.21,0,0,1,.35.33,1.68,1.68,0,0,1,.22.47h0a.4.4,0,0,1,.23-.17.6.6,0,0,1,.44.1,1.13,1.13,0,0,1,.23.17,1.7,1.7,0,0,1,.21.28,1.41,1.41,0,0,1,.17.41,1.9,1.9,0,0,1,.07.54v1.37l-.36-.21v-1.32a1.38,1.38,0,0,0-.12-.59.73.73,0,0,0-.33-.38.35.35,0,0,0-.27-.05.33.33,0,0,0-.17.18.58.58,0,0,0,0,.19v1.44l-.36-.2v-1.4a1.29,1.29,0,0,0-.11-.53.79.79,0,0,0-.31-.36.35.35,0,0,0-.29,0,.31.31,0,0,0-.17.2.5.5,0,0,0,0,.19v1.41Z" transform="translate(-373.76 -62.98)"/><path class="cls-38" d="M565.7,248.26a.18.18,0,0,1,.17,0,.44.44,0,0,1,.16.17.41.41,0,0,1,.07.23.16.16,0,0,1-.07.15s-.09,0-.17,0a.41.41,0,0,1-.16-.16.49.49,0,0,1-.06-.22A.18.18,0,0,1,565.7,248.26Zm.36,3.39-.37-.21V249.1l.37.21Z" transform="translate(-373.76 -62.98)"/><path class="cls-38" d="M566.75,249.28l.37.08v.56l.53.31v.32l-.53-.3v1.26a.64.64,0,0,0,.27.61l.22.1,0,.33a1.07,1.07,0,0,1-.33-.13,1.05,1.05,0,0,1-.4-.41,1.43,1.43,0,0,1-.15-.7V250l-.31-.18v-.33l.31.19Z" transform="translate(-373.76 -62.98)"/><path class="cls-38" d="M568.06,252.81v-3.43l.37.21v1.47h0a.36.36,0,0,1,.27-.15.72.72,0,0,1,.38.1l.17.13a1,1,0,0,1,.19.21,1.27,1.27,0,0,1,.18.27,1.52,1.52,0,0,1,.12.36,2,2,0,0,1,0,.44v1.39l-.37-.21v-1.35a1.31,1.31,0,0,0-.12-.56.8.8,0,0,0-.35-.4.41.41,0,0,0-.31-.06.32.32,0,0,0-.19.19.5.5,0,0,0,0,.19V253Z" transform="translate(-373.76 -62.98)"/><path class="cls-38" d="M477.84,201.25v-2.74h0l-.48,0-.07-.36.6,0,.31.18v3.14Z" transform="translate(-373.76 -62.98)"/><path class="cls-38" d="M480,202.5v-2.75h0l-.48,0-.07-.37.6,0,.31.18v3.14Z" transform="translate(-373.76 -62.98)"/><path class="cls-38" d="M481.44,203.52l-.28-.16,1.17-2.83.29.17Z" transform="translate(-373.76 -62.98)"/><path class="cls-38" d="M484.54,205.12l-1.75-1v-.26l.29-.15a3.71,3.71,0,0,0,.8-.51.72.72,0,0,0,.22-.55,1.13,1.13,0,0,0-.12-.51,1,1,0,0,0-.42-.41.64.64,0,0,0-.58-.07l-.11-.37a.88.88,0,0,1,.77.13,1.63,1.63,0,0,1,.62.63,1.59,1.59,0,0,1,.21.76.89.89,0,0,1-.22.64,2.68,2.68,0,0,1-.72.5l-.21.11h0l1.22.71Z" transform="translate(-373.76 -62.98)"/><path class="cls-38" d="M485.18,202.73q.26-.28.69,0a1.59,1.59,0,0,1,.67.8,3.48,3.48,0,0,1,.23,1.31,1.75,1.75,0,0,1-.24,1.08c-.17.19-.4.2-.71,0a1.57,1.57,0,0,1-.65-.8,3.39,3.39,0,0,1-.26-1.33A1.51,1.51,0,0,1,485.18,202.73Zm.66.28a.26.26,0,0,0-.4.11,1.85,1.85,0,0,0-.15.88,3.15,3.15,0,0,0,.15,1,1,1,0,0,0,.4.57c.19.1.32.07.42-.11a2,2,0,0,0,.14-.88,3.35,3.35,0,0,0-.14-1A1,1,0,0,0,485.84,203Z" transform="translate(-373.76 -62.98)"/><path class="cls-62" d="M517.59,245.54c0,1.67-1.18,2.34-2.64,1.5a5.81,5.81,0,0,1-2.64-4.55c0-1.67,1.18-2.34,2.64-1.5A5.81,5.81,0,0,1,517.59,245.54Z" transform="translate(-373.76 -62.98)"/><path class="cls-63" d="M524.92,249.58c0,1.67-1.19,2.35-2.64,1.51a5.81,5.81,0,0,1-2.64-4.55c0-1.68,1.18-2.35,2.64-1.51A5.83,5.83,0,0,1,524.92,249.58Z" transform="translate(-373.76 -62.98)"/><path class="cls-64" d="M555.17,147.24l10.54,6.09c.41.23.73,0,.73-.42a1.57,1.57,0,0,0-.73-1.25l-10.54-6.09c-.4-.23-.73,0-.73.41A1.62,1.62,0,0,0,555.17,147.24Zm10.54,8.17-10.54-6.09c-.4-.23-.73,0-.73.42a1.6,1.6,0,0,0,.73,1.25l10.54,6.09c.41.23.73,0,.73-.41A1.61,1.61,0,0,0,565.71,155.41Zm0,3.76-10.54-6.09c-.4-.23-.73-.05-.73.42a1.6,1.6,0,0,0,.73,1.25l10.54,6.09c.41.23.73,0,.73-.42A1.57,1.57,0,0,0,565.71,159.17Z" transform="translate(-373.76 -62.98)"/><path class="cls-65" d="M484.29,246.64l-9.17-5.29-.55-2.07a.87.87,0,0,0-.39-.55l-2.82-1.62c-.23-.14-.41,0-.41.23a.93.93,0,0,0,.41.73l2.52,1.45L477,251.41a.92.92,0,0,0,.4.55l.9.52-.1,0c-.44.24-.44,1,0,1.79s1.13,1.14,1.56.9.43-1.05,0-1.79c0-.06-.07-.11-.1-.16l1.94,1.13-.1,0c-.43.24-.43,1,0,1.79s1.13,1.14,1.56.9.43-1.05,0-1.79a.86.86,0,0,0-.1-.16l.42.24c.23.14.42,0,.42-.24a.93.93,0,0,0-.42-.72l-5.68-3.28-.64-2.43,6.61,3.82c.61.35,1.13.17,1.26-.44l.62-3A2.74,2.74,0,0,0,484.29,246.64Z" transform="translate(-373.76 -62.98)"/><path class="cls-58" d="M484.29,308.39l-9.17-5.29-.55-2.07a.87.87,0,0,0-.39-.55l-2.82-1.62c-.23-.14-.41,0-.41.23a.93.93,0,0,0,.41.73l2.52,1.45L477,313.16a.92.92,0,0,0,.4.55l.9.52-.1,0c-.44.24-.44,1,0,1.79s1.13,1.14,1.56.9.43-1,0-1.79c0-.06-.07-.11-.1-.16l1.94,1.13-.1,0c-.43.24-.43,1,0,1.79s1.13,1.14,1.56.9.43-1.05,0-1.79a.86.86,0,0,0-.1-.16l.42.24c.23.14.42,0,.42-.24a.93.93,0,0,0-.42-.72l-5.68-3.28-.64-2.43,6.61,3.82c.61.35,1.13.17,1.26-.44l.62-3A2.74,2.74,0,0,0,484.29,308.39Z" transform="translate(-373.76 -62.98)"/><path class="cls-66" d="M515,241l-11.4-6.25v5.92L515,247c1.46.84,2.64.17,2.64-1.5A5.79,5.79,0,0,0,515,241Z" transform="translate(-373.76 -62.98)"/><path class="cls-67" d="M558.63,125.34,477.42,78.45c-6.66-3.84-12.06-.76-12.06,6.88V314.45c0,7.64,5.4,17,12.06,20.8l81.21,46.89c6.66,3.85,12.06.77,12.06-6.88V146.15C570.69,138.5,565.29,129.19,558.63,125.34Zm11,249.92A8.91,8.91,0,0,1,568,380.9a4.93,4.93,0,0,1-4,1.85h0a10,10,0,0,1-4.89-1.52l-81.22-46.89c-6.36-3.67-11.54-12.59-11.54-19.89V85.33c0-4.62,2.15-7.48,5.6-7.48a10,10,0,0,1,4.89,1.51l81.22,46.89c6.36,3.67,11.54,12.6,11.54,19.9Z" transform="translate(-373.76 -62.98)"/><polygon class="cls-65" points="158.51 212.92 119.35 190.38 119.35 187.68 158.51 210.21 158.51 212.92"/><polygon class="cls-65" points="140.35 208.68 119.35 196.63 119.35 193.93 140.35 205.97 140.35 208.68"/><polygon class="cls-58" points="158.51 276.54 119.35 254.01 119.35 251.3 158.51 273.83 158.51 276.54"/><polygon class="cls-58" points="140.35 272.31 119.35 260.26 119.35 257.55 140.35 269.6 140.35 272.31"/><path class="cls-65" d="M541.28,285.31l-4.57-2.64v-.9l.8-.38a8.65,8.65,0,0,0,1.82-1.1,1.62,1.62,0,0,0,.53-1.2,2.19,2.19,0,0,0-.3-1.1,2.29,2.29,0,0,0-.91-.89,1.77,1.77,0,0,0-1.45-.19l-.37-1.25a2.48,2.48,0,0,1,2.08.4,4.43,4.43,0,0,1,1.65,1.62,4,4,0,0,1,.57,2,2.09,2.09,0,0,1-.51,1.49,4.73,4.73,0,0,1-1.52,1l-.58.25v0l2.76,1.59Z" transform="translate(-373.76 -62.98)"/><path class="cls-65" d="M546.58,280.62v1.21l-2.6-1.5-.2,1.44a3.57,3.57,0,0,1,.48.24,5.23,5.23,0,0,1,1.64,1.45,4,4,0,0,1,.89,2.47,1.44,1.44,0,0,1-.76,1.48,2.22,2.22,0,0,1-2-.36,6.61,6.61,0,0,1-1.79-1.49l.26-1a5.52,5.52,0,0,0,1.48,1.26,1.33,1.33,0,0,0,1,.22c.28-.08.43-.34.43-.78,0-1-.64-1.85-1.91-2.58-.28-.16-.58-.31-.93-.47l.44-3.66Z" transform="translate(-373.76 -62.98)"/><path class="cls-65" d="M550.23,282.59A4.3,4.3,0,0,1,552,284.7a8.25,8.25,0,0,1,.61,3.22,4.05,4.05,0,0,1-.64,2.62c-.43.47-1,.48-1.84,0a4.29,4.29,0,0,1-1.75-2.1,8.29,8.29,0,0,1-.64-3.27,3.8,3.8,0,0,1,.66-2.56C548.84,282.16,549.45,282.14,550.23,282.59Zm0,1.1a.55.55,0,0,0-.84.27,4.33,4.33,0,0,0-.32,2,7.25,7.25,0,0,0,.31,2.31,2,2,0,0,0,.84,1.22q1.14.66,1.14-2.25C551.33,285.3,551,284.13,550.2,283.69Z" transform="translate(-373.76 -62.98)"/><path class="cls-65" d="M555.8,285.81a4.26,4.26,0,0,1,1.78,2.11,8.2,8.2,0,0,1,.61,3.21,4,4,0,0,1-.64,2.62c-.43.48-1,.48-1.84,0a4.21,4.21,0,0,1-1.75-2.1,8.24,8.24,0,0,1-.64-3.26,3.79,3.79,0,0,1,.66-2.56C554.42,285.37,555,285.36,555.8,285.81Zm0,1.1a.55.55,0,0,0-.84.26,4.36,4.36,0,0,0-.32,2,7.21,7.21,0,0,0,.31,2.31,2.11,2.11,0,0,0,.84,1.23q1.14.65,1.14-2.25C556.9,288.52,556.52,287.34,555.77,286.91Z" transform="translate(-373.76 -62.98)"/><path class="cls-65" d="M561,293l2.65,1.53v1L561,294Z" transform="translate(-373.76 -62.98)"/><path class="cls-58" d="M542.38,343.73l4.54,2.62v.94l-2.86,5.16-1.34-.77,2.85-4.87v0l-3.19-1.84Z" transform="translate(-373.76 -62.98)"/><path class="cls-58" d="M552.15,349.37v1.21l-2.6-1.5-.2,1.44a3.57,3.57,0,0,1,.48.24,5.23,5.23,0,0,1,1.64,1.45,4,4,0,0,1,.89,2.47,1.44,1.44,0,0,1-.76,1.48,2.21,2.21,0,0,1-2-.36,6.61,6.61,0,0,1-1.79-1.49l.26-1a5.52,5.52,0,0,0,1.48,1.26,1.33,1.33,0,0,0,1,.22c.28-.08.43-.34.43-.78,0-1-.64-1.85-1.91-2.58-.28-.16-.58-.31-.93-.47l.44-3.66Z" transform="translate(-373.76 -62.98)"/><path class="cls-58" d="M555.8,351.34a4.3,4.3,0,0,1,1.78,2.11,8.25,8.25,0,0,1,.61,3.22,4.05,4.05,0,0,1-.64,2.62c-.43.47-1,.48-1.84,0a4.29,4.29,0,0,1-1.75-2.1,8.29,8.29,0,0,1-.64-3.27,3.8,3.8,0,0,1,.66-2.56C554.41,350.91,555,350.89,555.8,351.34Zm0,1.1c-.34-.2-.62-.11-.83.27a4.33,4.33,0,0,0-.32,2,7.25,7.25,0,0,0,.31,2.31,2.08,2.08,0,0,0,.83,1.22c.77.44,1.15-.31,1.15-2.25S556.52,352.88,555.76,352.44Z" transform="translate(-373.76 -62.98)"/><path class="cls-58" d="M561,358.54l2.65,1.54v1L561,359.56Z" transform="translate(-373.76 -62.98)"/><path class="cls-68" d="M484.29,333.14l-9.17-5.29-.55-2.07a.87.87,0,0,0-.39-.55l-2.82-1.63c-.23-.13-.41,0-.41.24a.93.93,0,0,0,.41.73l2.52,1.45,2.2,8.37c.44.31.89.6,1.34.86l6.86,4a.66.66,0,0,0,.65-.59l.62-3A2.74,2.74,0,0,0,484.29,333.14Z" transform="translate(-373.76 -62.98)"/><polygon class="cls-69" points="158.51 302.29 119.35 279.76 119.35 277.05 158.51 299.58 158.51 302.29"/><polygon class="cls-70" points="71.89 48.15 71.89 35.86 78.53 45.84 71.89 48.15 71.89 48.15"/><polygon class="cls-71" points="62.85 42.98 62.85 30.69 69.49 40.67 62.85 42.98 62.85 42.98"/><polygon class="cls-72" points="53.81 37.81 53.81 25.52 60.45 35.5 53.81 37.81 53.81 37.81"/><polygon class="cls-73" points="44.78 32.64 44.78 20.35 51.41 30.33 44.78 32.64 44.78 32.64"/><polygon class="cls-74" points="35.74 27.47 35.74 15.18 42.38 25.16 35.74 27.47 35.74 27.47"/><polygon class="cls-70" points="223.13 164.85 223.13 177.14 216.49 167.16 223.13 164.85 223.13 164.85"/><polygon class="cls-71" points="232.16 170.02 232.16 182.31 225.53 172.33 232.16 170.02 232.16 170.02"/><polygon class="cls-72" points="241.2 175.19 241.2 187.48 234.56 177.5 241.2 175.19 241.2 175.19"/><polygon class="cls-73" points="250.24 180.35 250.24 192.65 243.6 182.67 250.24 180.35 250.24 180.35"/><polygon class="cls-74" points="259.28 185.52 259.28 197.82 252.64 187.84 259.28 185.52 259.28 185.52"/><polygon class="cls-70" points="113.89 171.82 113.89 159.52 120.53 169.5 113.89 171.82 113.89 171.82"/><polygon class="cls-71" points="104.85 166.65 104.85 154.35 111.49 164.33 104.85 166.65 104.85 166.65"/><polygon class="cls-72" points="95.81 161.48 95.81 149.19 102.45 159.16 95.81 161.48 95.81 161.48"/><polygon class="cls-73" points="86.78 156.31 86.78 144.02 93.41 154 86.78 156.31 86.78 156.31"/><polygon class="cls-74" points="77.74 151.14 77.74 138.85 84.38 148.82 77.74 151.14 77.74 151.14"/><g class="cls-75"><polygon class="cls-76" points="110.86 205.44 214.12 264.93 206.64 269.22 103.38 209.72 110.86 205.44"/><polygon class="cls-77" points="206.64 285.42 214.12 292.44 206.64 296.73 103.38 237.23 206.64 285.42"/><polygon class="cls-78" points="214.13 292.66 206.64 296.94 206.64 269.22 214.13 264.93 214.13 292.66"/><polygon class="cls-79" points="208.64 270.38 212.13 268.38 212.13 291.5 208.64 293.5 208.64 270.38"/><polygon class="cls-80" points="206.64 296.94 103.38 237.45 103.38 209.72 206.64 269.22 206.64 296.94"/></g><polygon class="cls-81" points="103.38 209.72 206.63 268.68 214.13 264.93 206.94 269.43 206.64 296.94 205.75 269.56 103.38 209.72"/><path class="cls-38" d="M495.58,291.81,483,284.54c-1-.56-1.76-.12-1.76,1v.55h0v6.42h0v.56a3.88,3.88,0,0,0,1.76,3l12.59,7.27c1,.56,1.76.11,1.76-1v-7.53A3.86,3.86,0,0,0,495.58,291.81Zm1.17,9.24-14.93-8.62v-5.58l14.93,8.62Zm-4.12-5.54-6.69-3.86v1l6.69,3.86Z" transform="translate(-373.76 -62.98)"/><polygon class="cls-38" points="150.2 248.8 127.31 235.61 127.31 232.59 150.2 245.78 150.2 248.8"/><polygon class="cls-38" points="141.76 250.84 127.31 242.57 127.31 239.56 141.76 247.82 141.76 250.84"/><path class="cls-82" d="M569.72,332.18l2,1.15v6.23l5.22,3v2.15l-5.22-3V348l-2-1.15v-6.29l-5.22-3V335.4l5.22,3Z" transform="translate(-373.76 -62.98)"/><path class="cls-83" d="M534.69,323.87l-1.41-.81v-2.29l-3.57-2.07v-1.11l3.22-3.76,1.76,1v5.45l1,.58v1.29l-1-.58Zm-3.55-5.63,2.14,1.23V317c0-.33,0-.84.05-1.55l-.05,0c-.24.42-.47.8-.69,1.13l-1.45,1.63Z" transform="translate(-373.76 -62.98)"/><path class="cls-84" d="M541.82,328l-5.33-3.07v-1l.93-.45a9.31,9.31,0,0,0,2.12-1.29,1.82,1.82,0,0,0,.62-1.38,2.7,2.7,0,0,0-.34-1.29,2.75,2.75,0,0,0-1.07-1,2.09,2.09,0,0,0-1.68-.22l-.44-1.46a3,3,0,0,1,2.43.47A5,5,0,0,1,541,319.1a4.6,4.6,0,0,1,.68,2.34,2.45,2.45,0,0,1-.6,1.74,5.79,5.79,0,0,1-1.78,1.21l-.67.29v0l3.22,1.86Z" transform="translate(-373.76 -62.98)"/><path class="cls-85" d="M546.5,321.57a5,5,0,0,1,2.08,2.46,9.53,9.53,0,0,1,.7,3.75,4.63,4.63,0,0,1-.74,3.05c-.5.55-1.21.56-2.14,0a5,5,0,0,1-2-2.44,9.57,9.57,0,0,1-.74-3.8,4.46,4.46,0,0,1,.76-3C544.89,321.07,545.6,321.05,546.5,321.57Zm0,1.29c-.4-.23-.72-.13-1,.31a5,5,0,0,0-.37,2.29,8.54,8.54,0,0,0,.36,2.69,2.5,2.5,0,0,0,1,1.43c.89.51,1.33-.37,1.33-2.63S547.34,323.37,546.46,322.86Z" transform="translate(-373.76 -62.98)"/><path class="cls-86" d="M553,325.32a5,5,0,0,1,2.07,2.46,9.36,9.36,0,0,1,.71,3.75,4.71,4.71,0,0,1-.74,3.05c-.5.55-1.21.55-2.14,0a4.93,4.93,0,0,1-2-2.45,9.4,9.4,0,0,1-.74-3.8,4.43,4.43,0,0,1,.76-3C551.38,324.81,552.08,324.8,553,325.32Zm0,1.29a.62.62,0,0,0-1,.3,5,5,0,0,0-.37,2.29,8.56,8.56,0,0,0,.36,2.7,2.43,2.43,0,0,0,1,1.42c.89.51,1.33-.36,1.33-2.62S553.83,327.11,553,326.61Z" transform="translate(-373.76 -62.98)"/><path class="cls-87" d="M559.48,329.07a4.91,4.91,0,0,1,2.07,2.45,9.53,9.53,0,0,1,.71,3.75,4.69,4.69,0,0,1-.74,3.05c-.5.55-1.21.56-2.14,0a5,5,0,0,1-2-2.44,9.57,9.57,0,0,1-.73-3.8,4.46,4.46,0,0,1,.76-3C557.87,328.56,558.57,328.54,559.48,329.07Zm0,1.28a.63.63,0,0,0-1,.31,5,5,0,0,0-.37,2.29,8.56,8.56,0,0,0,.35,2.69,2.51,2.51,0,0,0,1,1.43c.89.51,1.33-.37,1.33-2.62S560.32,330.86,559.44,330.35Z" transform="translate(-373.76 -62.98)"/><g class="cls-88"><path class="cls-89" d="M605.44,351.74c0,3.24-1.12,5.53-2.94,6.64l-3.16,1.95c-1.89,1.06-.68-1.34-3.55-3-5.78-3.33-10.46-11.41-10.46-18,0-3.28-3-3.31-1.18-4.4l3.52-2c1.89-1,4.46-.84,7.3.8C600.75,337,605.44,345.11,605.44,351.74Z" transform="translate(-373.76 -62.98)"/><ellipse class="cls-90" cx="591.55" cy="347.73" rx="8.52" ry="14.75" transform="translate(-468.39 283.11) rotate(-30.31)"/><path class="cls-91" d="M599.29,352.2c0,4.9-3.47,6.88-7.74,4.41s-7.73-8.44-7.73-13.34,3.46-6.88,7.73-4.41S599.29,347.3,599.29,352.2Z" transform="translate(-373.76 -62.98)"/><path class="cls-92" d="M592.27,355.93c-4.27-2.46-7.74-8.44-7.74-13.34a6.26,6.26,0,0,1,1.22-4.06c-1.2.87-1.93,2.49-1.93,4.74,0,4.9,3.46,10.87,7.73,13.34,2.75,1.58,5.15,1.33,6.52-.35C596.66,357.29,594.58,357.27,592.27,355.93Z" transform="translate(-373.76 -62.98)"/><g class="cls-93"><path class="cls-94" d="M595.2,333.84l-.23-.15-.2-.11-3.48,2,.26.14.18.11Z" transform="translate(-373.76 -62.98)"/><path class="cls-94" d="M591.41,332.36l-3.5,2c.21,0,.43.08.65.13l3.51-2Z" transform="translate(-373.76 -62.98)"/><path class="cls-94" d="M597.26,335.3l-3.47,2,.35.31,3.46-2Z" transform="translate(-373.76 -62.98)"/><path class="cls-94" d="M601,339.43l-3.45,2c.09.11.17.24.25.36l3.45-2Z" transform="translate(-373.76 -62.98)"/><path class="cls-94" d="M599.3,337.28l-3.45,2,.29.34,3.46-2Z" transform="translate(-373.76 -62.98)"/><path class="cls-94" d="M602.51,341.74l-3.44,2,.21.38,3.44-2Z" transform="translate(-373.76 -62.98)"/><path class="cls-94" d="M604.84,355.37l-3.4,2c-.08.23-.17.45-.26.66l3.38-1.95C604.66,355.82,604.75,355.6,604.84,355.37Z" transform="translate(-373.76 -62.98)"/><path class="cls-94" d="M602,354c0,.18,0,.35,0,.52l3.42-2c0-.17,0-.34,0-.51Z" transform="translate(-373.76 -62.98)"/><path class="cls-94" d="M605.28,349.67c0-.16,0-.32-.06-.47l-3.43,2c0,.16,0,.31.06.47Z" transform="translate(-373.76 -62.98)"/><path class="cls-94" d="M601.17,348.56c.05.15.08.29.12.44l3.44-2-.12-.43Z" transform="translate(-373.76 -62.98)"/><path class="cls-94" d="M603.87,344.54c-.06-.14-.11-.28-.17-.41l-3.44,2c.06.14.11.28.17.41Z" transform="translate(-373.76 -62.98)"/></g><path class="cls-95" d="M599.35,335.51c3.39,3.79,4.4,8.42,2.25,10.34s-6.64.42-10-3.36-4.4-8.42-2.25-10.34S596,331.73,599.35,335.51Z" transform="translate(-373.76 -62.98)"/><path class="cls-96" d="M595,333.69c-2.84-1.64-5.41-1.83-7.3-.8l-.47.26c1.84-.78,4.24-.53,6.87,1,5.78,3.34,10.46,11.42,10.46,18.05,0,3.24-1.11,5.53-2.93,6.64-.05,0,.85-.41.9-.45,1.82-1.11,2.94-3.4,2.94-6.64C605.44,345.11,600.75,337,595,333.69Z" transform="translate(-373.76 -62.98)"/><path class="cls-97" d="M592,335.43c-2.77-1.6-5.24-1.77-7.11-.83a8.19,8.19,0,0,1,6.25,1.23c5.78,3.33,10.46,11.41,10.46,18,0,3.46-1.27,5.83-3.3,6.85,2.55-.72,4.16-3.3,4.16-7.24C602.47,346.85,597.79,338.77,592,335.43Z" transform="translate(-373.76 -62.98)"/><path class="cls-98" d="M593.12,341.67l.94,3.63a1.22,1.22,0,0,0,.52.74l2.85,1.71c.54.32.76,1.24.33,1.36l-2.27.67c-.19.05-.27.29-.2.59l.83,3.61c.15.68-.43.82-.87.22L592.91,351a.74.74,0,0,0-.65-.38l-2.34.52c-.44.1-1-.72-.86-1.22l.82-2.66a1,1,0,0,0-.2-.82l-2.27-3.29c-.43-.62-.21-1.27.33-1l2.85,1.58c.24.13.45.07.52-.14l.94-2.55C592.23,340.57,592.94,341,593.12,341.67Z" transform="translate(-373.76 -62.98)"/><path class="cls-99" d="M592.49,342l.94,3.64a1.2,1.2,0,0,0,.52.73l2.85,1.72c.54.32.76,1.23.33,1.36l-2.27.66c-.19.06-.27.29-.2.59l.83,3.61c.15.68-.43.83-.87.22l-2.34-3.22a.73.73,0,0,0-.65-.37l-2.34.52c-.44.09-1-.72-.87-1.22l.83-2.66a1,1,0,0,0-.2-.82l-2.27-3.29c-.43-.62-.21-1.28.33-1l2.85,1.58c.24.13.45.08.52-.13l.94-2.55C591.6,340.89,592.31,341.3,592.49,342Z" transform="translate(-373.76 -62.98)"/><path class="cls-100" d="M592.49,342l.94,3.64a1.2,1.2,0,0,0,.52.73l2.85,1.72c.54.32.76,1.23.33,1.36l-2.27.66c-.19.06-.27.29-.2.59l.83,3.61c.15.68-.43.83-.87.22l-2.34-3.22a.73.73,0,0,0-.65-.37l-2.34.52c-.44.09-1-.72-.87-1.22l.83-2.66a1,1,0,0,0-.2-.82l-2.27-3.29c-.43-.62-.21-1.28.33-1l2.85,1.58c.24.13.45.08.52-.13l.94-2.55C591.6,340.89,592.31,341.3,592.49,342Z" transform="translate(-373.76 -62.98)"/></g><path class="cls-70" d="M448.33,263.19v-4.52a12,12,0,0,1-2.71-3.4,7.73,7.73,0,0,1-.86-3.47,2.67,2.67,0,0,1,1-2.41,2.57,2.57,0,0,1,2.59.11v-1.07l1.36.78v1.07a8.36,8.36,0,0,1,3.52,5.79l-2.39-1a4.38,4.38,0,0,0-1.13-2.38v4.23a13.18,13.18,0,0,1,3.08,3.59,7.17,7.17,0,0,1,.82,3.34,3.1,3.1,0,0,1-1,2.7,2.86,2.86,0,0,1-2.87,0v2l-1.36-.79v-2a9.38,9.38,0,0,1-2.65-2.92,10.73,10.73,0,0,1-1.3-4.05l2.46,1.12a6.36,6.36,0,0,0,.57,1.81A5.85,5.85,0,0,0,448.33,263.19Zm0-11.34a1,1,0,0,0-.89.22,1.3,1.3,0,0,0-.33,1,3.09,3.09,0,0,0,.31,1.24,5,5,0,0,0,.91,1.32Zm1.36,12.28a1.14,1.14,0,0,0,1.15-.09,1.34,1.34,0,0,0,.45-1.15,3.21,3.21,0,0,0-.38-1.46,5.15,5.15,0,0,0-1.22-1.51Z" transform="translate(-373.76 -62.98)"/><g class="cls-101"><path class="cls-58" d="M595.67,199.15V197l-1.31-.75-.66-.38V198l-2.08-1.2v-2.14l-1.92-1.11v-15.7l1.92,1.11v-2.14l2.08,1.2v2.15l1.47.84.5.3v-2.15l2.08,1.2v2.34A6.94,6.94,0,0,1,599,184a8.5,8.5,0,0,1,1.06,1.92,5.64,5.64,0,0,1,.42,2.08,2.61,2.61,0,0,1-.52,1.73,1.62,1.62,0,0,1-1.4.57,8.36,8.36,0,0,1,1.92,2.53,6.28,6.28,0,0,1,.67,2.75,3.76,3.76,0,0,1-.43,1.84,1.82,1.82,0,0,1-1.19.93,2.92,2.92,0,0,1-1.79-.29v2.25Zm-3.21-17.08v3.63l1.81,1.05c1.08.62,1.75,1,2,1.1a1.21,1.21,0,0,0,1.11.08c.28-.15.41-.48.41-1a2.89,2.89,0,0,0-.35-1.38,3.35,3.35,0,0,0-1-1.16c-.27-.19-1.06-.66-2.36-1.41Zm0,6.24v4.2L595,194a16.79,16.79,0,0,0,1.89,1,1.07,1.07,0,0,0,1,0,1.3,1.3,0,0,0,.38-1.11,3.49,3.49,0,0,0-.29-1.38,4,4,0,0,0-.87-1.21,14,14,0,0,0-2.45-1.64Z" transform="translate(-373.76 -62.98)"/></g><g class="cls-101"><polygon class="cls-71" points="85.74 322.71 90.21 325.29 92.37 324.04 87.9 321.46 85.74 322.71"/><polygon class="cls-70" points="89.08 320.79 93.55 323.37 95.95 321.98 91.48 319.4 89.08 320.79"/><polygon class="cls-102" points="79.07 326.56 83.54 329.14 85.23 328.17 80.76 325.59 79.07 326.56"/><polygon class="cls-74" points="76.8 327.89 81.27 330.47 82.14 330.04 77.67 327.46 76.8 327.89"/><polygon class="cls-103" points="82.41 324.64 86.88 327.22 88.8 326.11 84.33 323.53 82.41 324.64"/><polygon class="cls-104" points="88.73 316.47 100.87 323.48 103.16 315.15 88.73 316.47"/></g><g class="cls-101"><polygon class="cls-71" points="181.22 345.46 176.75 348.04 174.59 346.79 179.06 344.21 181.22 345.46"/><polygon class="cls-70" points="177.88 343.54 173.41 346.12 171.01 344.73 175.48 342.15 177.88 343.54"/><polygon class="cls-102" points="187.89 349.31 183.42 351.89 181.73 350.92 186.2 348.34 187.89 349.31"/><polygon class="cls-74" points="190.16 350.64 185.69 353.22 184.82 352.79 189.29 350.21 190.16 350.64"/><polygon class="cls-103" points="184.56 347.39 180.09 349.97 178.16 348.86 182.63 346.28 184.56 347.39"/><polygon class="cls-104" points="178.23 339.22 166.09 346.23 163.8 337.9 178.23 339.22"/></g><g id="pbuf8U.tif"><path class="cls-64" d="M472.5,114.77l.73.43.09-1.59c.17,0,.28,0,.39.07a1.44,1.44,0,0,0,1.93-1,6.3,6.3,0,0,0-.13-4.6c-.54-1.35-1.29-2.62-1.95-3.93a26.38,26.38,0,0,1-1.44-2.86,5.82,5.82,0,0,1-.18-2.09c0-.51.35-.65.85-.5a2,2,0,0,1,1.29,2,1.27,1.27,0,0,0,.91,1.48,10.07,10.07,0,0,1,1.21.67,6.27,6.27,0,0,0-1.65-5.42A1.59,1.59,0,0,1,474,96a.75.75,0,0,0-.56-1,8.12,8.12,0,0,1-1.05-.54,7.43,7.43,0,0,1,2.5-2.18,8.74,8.74,0,0,1,6.57-.74c1,.24,1.91.64,2.87.93a.71.71,0,0,0,.55-.1,5.83,5.83,0,0,1,5.27-.94.54.54,0,0,1,.28.38,2,2,0,0,1-1.6,2.59l-.37.16a8.29,8.29,0,0,1,.63,1,6.05,6.05,0,0,1,.41,1.1c.08.31-.09.47-.42.48a4.94,4.94,0,0,1-3.39-2c-.05-.12.06-.35.16-.46s.28-.12.53-.22c-.17-.17-.29-.37-.43-.39a9.71,9.71,0,0,0-4.05-.12,4.77,4.77,0,0,0-3.43,3.62,12.65,12.65,0,0,0,1.61,10,5.18,5.18,0,0,0,2.17,1.79q8.85,5.07,17.7,10.13a.77.77,0,0,1,.43.85,14.59,14.59,0,0,1-1.46,5.84,8.41,8.41,0,0,1-9.32,4.69,15.94,15.94,0,0,1-6.69-2.91C478.19,124.6,475,120.09,472.5,114.77ZM491,129.23a7.84,7.84,0,0,0,5.71-2.56,1.18,1.18,0,0,0-.22-2c-.4-.28-.63-.21-1,.12a9.64,9.64,0,0,1-1.75,1.51,8,8,0,0,1-6.42.74,17.26,17.26,0,0,1-7.59-4.58c-.61-.59-1.14-1.26-1.74-1.86a1.7,1.7,0,0,0-.62-.23c-.06.21-.22.46-.16.63a2.51,2.51,0,0,0,.52.91,24.6,24.6,0,0,0,6.21,5.29A13.6,13.6,0,0,0,491,129.23Zm-2.1-3.31a6.22,6.22,0,0,0,4.44-1.7c.32-.3.48-.64.24-1a5.52,5.52,0,0,0-1-1c-.05,0-.27.06-.36.14-2,1.94-4.28,2-6.73,1.16a14.68,14.68,0,0,1-5.67-4,11.15,11.15,0,0,0-.79-.89,2.11,2.11,0,0,0-.67-.23c0,.22-.17.46-.12.65a2.35,2.35,0,0,0,.45.82,20.28,20.28,0,0,0,5.09,4.41A10.62,10.62,0,0,0,488.88,125.92Zm-1.13-3.55c.39-.11,1.12-.27,1.82-.53.5-.18.56-.51.3-1s-.77-.94-1.17-.73a4.82,4.82,0,0,1-4.36,0,11.35,11.35,0,0,1-4.06-3.12,2.18,2.18,0,0,0-.45-.46.52.52,0,0,0-.48-.06.47.47,0,0,0-.2.43,2.61,2.61,0,0,0,.48,1,28.8,28.8,0,0,0,2.51,2.43A9,9,0,0,0,487.75,122.37Zm1.91-5.91a2,2,0,0,0,1.09,1.68c.55.29,1,0,1-.6a2,2,0,0,0-1.07-1.79C490.11,115.43,489.65,115.75,489.66,116.46Z" transform="translate(-373.76 -62.98)"/><path class="cls-64" d="M523.62,123.23c0,.43-.09.79-.09,1.15,0,5.42,0,10.83,0,16.25,0,.16,0,.32,0,.48,0,.62-.31.77-.85.49a2.23,2.23,0,0,1-1.28-2.16q0-8.16,0-16.32a5.94,5.94,0,0,0-.24-1.44c0-.13-.3-.21-.46-.32a2,2,0,0,0-.24.49,5.72,5.72,0,0,0,0,.83V141a4.64,4.64,0,0,1,0,.53c0,.54-.32.69-.8.45a2.18,2.18,0,0,1-1.32-2.14c0-3.45,0-6.91,0-10.36V118.73a4,4,0,0,1,0-.6c.08-.5.33-.61.8-.41a2,2,0,0,1,1.27,2.19l.34-.41c.37-.45.81-.59,1.23-.21a10,10,0,0,1,1.23,1.56,2.91,2.91,0,0,1,.25.6c.61-.69.89-.72,1.66-.22a3.56,3.56,0,0,1,1.5,3.07c0,.74,0,1.47,0,2.21,0,4.66,0,9.32,0,14a3.5,3.5,0,0,1-.23.87,4.17,4.17,0,0,1-.87-.26,2,2,0,0,1-1-1.94V125.3a9.49,9.49,0,0,0,0-1.07A1,1,0,0,0,523.62,123.23Z" transform="translate(-373.76 -62.98)"/><path class="cls-64" d="M532.44,138v8.69a6.32,6.32,0,0,1-.09,1.06c-.2,1.21-1,1.61-2.06,1.07a5.41,5.41,0,0,1-2.95-4,6.29,6.29,0,0,1-.12-1.3V125.94a4.69,4.69,0,0,1,.12-1.12,1.22,1.22,0,0,1,1.84-.95,5.23,5.23,0,0,1,3,3.61,7.38,7.38,0,0,1,.23,1.82C532.45,132.19,532.44,135.09,532.44,138Zm-3-11.49c0,.32-.06.59-.06.86q0,8.75,0,17.49a3.82,3.82,0,0,0,0,.59.92.92,0,0,0,.87.86c0-.35.07-.67.07-1q0-8.59,0-17.19a4.62,4.62,0,0,0,0-.83A.83.83,0,0,0,529.41,126.49Z" transform="translate(-373.76 -62.98)"/><path class="cls-64" d="M506.35,125.83v10.69a1.42,1.42,0,0,1-.08.69.73.73,0,0,1-.58.27,2,2,0,0,1-1.46-2q0-12.95,0-25.89c0-.25.08-.62.25-.72s.5.05.74.15a1.51,1.51,0,0,1,1,1.61,3.87,3.87,0,0,1,1.43-.23,1.8,1.8,0,0,1,1.29,1.37,9.85,9.85,0,0,1,.43,2.38c0,4,0,8.06,0,12.08a5.12,5.12,0,0,1-.19,1.35c-.19.7-.63.85-1.27.49a3.5,3.5,0,0,1-1.36-1.82c-.06-.14-.11-.28-.16-.42Zm.34-13.4-.21.07a7.55,7.55,0,0,0-.12.94c0,3.21,0,6.43,0,9.64a2.41,2.41,0,0,0,.12.93c.1.24.37.4.57.6.09-.22.19-.44.26-.67a.75.75,0,0,0,0-.3q0-4.78,0-9.57a3,3,0,0,0-.13-1A2.71,2.71,0,0,0,506.69,112.43Z" transform="translate(-373.76 -62.98)"/><path class="cls-64" d="M534.88,128.75c.71-.82,1-.86,1.78-.32a3.16,3.16,0,0,1,1.28,2.33,16.51,16.51,0,0,1,.09,1.72q0,8.6,0,17.2a4.64,4.64,0,0,1,0,.53c-.07.55-.34.69-.82.45a2.22,2.22,0,0,1-1.31-2.14q0-8.19,0-16.37a4.23,4.23,0,0,0-.14-1.23c-.07-.2-.38-.33-.57-.5a1.8,1.8,0,0,0-.24.61c0,1.25,0,2.5,0,3.75V149.9c0,.18,0,.36,0,.54-.05.64-.34.78-.91.48a2.15,2.15,0,0,1-1.22-2.07q0-10.62,0-21.24a3.85,3.85,0,0,1,0-.48c.07-.46.34-.59.76-.38A1.87,1.87,0,0,1,534.88,128.75Z" transform="translate(-373.76 -62.98)"/><path class="cls-64" d="M540.51,143.53v1.41c0,2.4,0,4.8,0,7.2a1.09,1.09,0,0,0,.9,1.21c0-.28.08-.51.09-.73,0-.9,0-1.79,0-2.68,0-.65.3-.81.87-.51a2.14,2.14,0,0,1,1.25,2.12c0,1,0,2.1-.09,3.14-.14,1.29-1,1.71-2.12,1.11a5.39,5.39,0,0,1-3-4.55c-.1-1.11,0-2.22,0-3.33V133a5.18,5.18,0,0,1,.1-1.18,1.23,1.23,0,0,1,1.87-1,5.23,5.23,0,0,1,3,3.6,6.52,6.52,0,0,1,.24,1.7c0,2.66,0,5.32,0,8,0,.29-.09.72-.28.83s-.58-.09-.83-.23C541.87,144.4,541.25,144,540.51,143.53Zm.1-10c0,.36-.07.65-.07.94v6.06c0,.91,0,1,1,1.29v-1.31c0-1.94,0-3.88,0-5.82A1,1,0,0,0,540.61,133.49Z" transform="translate(-373.76 -62.98)"/><path class="cls-64" d="M546.75,152.05c0-1.58-.06-3.17,0-4.75.17-3.59.4-7.17.62-10.75,0-.84.34-1,1.07-.51a2,2,0,0,1,1,2c-.38,4.57-.74,9.14-1.15,13.7-.33,3.59-.72,7.18-1.09,10.77-.07.71-.31.81-.93.47-.79-.44-1.52-.95-1.53-1.95a11.84,11.84,0,0,1,.2-1.77c.14-1,.35-2,.4-3a20.77,20.77,0,0,0-.1-2.73q-.75-9.53-1.52-19c0-.12,0-.24,0-.36,0-.65.31-.79.88-.48a2.11,2.11,0,0,1,1.19,1.91q.35,8.17.71,16.35a1,1,0,0,0,0,.17Z" transform="translate(-373.76 -62.98)"/><path class="cls-64" d="M514.69,124.47v12.86a4.64,4.64,0,0,1,0,.53c-.07.55-.34.68-.82.44a2.2,2.2,0,0,1-1.3-2.14q0-13,0-25.95a2.33,2.33,0,0,1,0-.53c.08-.39.3-.54.69-.38a2.14,2.14,0,0,1,1.41,2.14Z" transform="translate(-373.76 -62.98)"/><path class="cls-64" d="M510,123.94c0-3.57,0-7.14,0-10.71a3.17,3.17,0,0,1,.25-.87,4.81,4.81,0,0,1,.86.28,1.86,1.86,0,0,1,1,1.77q0,10.77,0,21.55c0,.25-.1.62-.28.71s-.51-.06-.74-.18a2,2,0,0,1-1.1-2Q510,129.25,510,123.94Z" transform="translate(-373.76 -62.98)"/><path class="cls-64" d="M500.05,116.79c0,.82-.37,1.07-1,.78a1.74,1.74,0,0,1-1-1.44,30.09,30.09,0,0,0-6.76-15.54,2.69,2.69,0,0,1-.6-1.06,1.2,1.2,0,0,1,.31-1c.32-.27.72,0,1,.28.91,1.19,1.89,2.35,2.73,3.6a33,33,0,0,1,4.73,10.71C499.77,114.38,499.88,115.67,500.05,116.79Z" transform="translate(-373.76 -62.98)"/><path class="cls-64" d="M496.06,114.5c-.13.26-.2.69-.39.75a1.06,1.06,0,0,1-.9-.21,2.08,2.08,0,0,1-.62-1,30,30,0,0,0-4.51-11.1,1.87,1.87,0,0,1-.38-.84c0-.32.11-.8.33-.9s.68.07.92.26a4.11,4.11,0,0,1,.72,1,33.59,33.59,0,0,1,4.55,10.71c.05.22.09.43.12.65s0,.43.06.65Z" transform="translate(-373.76 -62.98)"/><path class="cls-64" d="M470,101.47c1.06,2,2.21,4,3.21,6.13a6.28,6.28,0,0,1,.38,2.42c0,.73-.45.91-1.08.54a2.2,2.2,0,0,1-1.15-1.83,3.3,3.3,0,0,1,0-.77,1.13,1.13,0,0,0-.79-1.43.89.89,0,0,1-.58-.93C470,104.2,470,102.8,470,101.47Z" transform="translate(-373.76 -62.98)"/><path class="cls-64" d="M492.08,112.37c0,.62-.45.94-.94.61a2,2,0,0,1-.8-1,37.12,37.12,0,0,0-2.66-6.42c-.33-.61-.26-1.18.12-1.33.57-.21.93.16,1.17.57A32.56,32.56,0,0,1,492,112.1,1.41,1.41,0,0,1,492.08,112.37Z" transform="translate(-373.76 -62.98)"/><path class="cls-64" d="M487.71,109.5c-.09.16-.18.52-.39.62a1.08,1.08,0,0,1-.88-.06,2.07,2.07,0,0,1-1-1.77,1.08,1.08,0,0,1,.36-.81,1,1,0,0,1,.85.09A2.21,2.21,0,0,1,487.71,109.5Z" transform="translate(-373.76 -62.98)"/></g></g></g></svg>